<svg width="886" height="107" viewBox="0 0 886 107" fill="none" xmlns="http://www.w3.org/2000/svg">
<path d="M53.86 100.9C55.752 100.9 57.402 100.614 58.81 100.042C60.262 99.47 61.494 98.678 62.506 97.666C63.518 96.654 64.354 95.444 65.014 94.036C65.718 92.584 66.29 91 66.73 89.284L66.928 88.492H72.472L72.274 89.284C71.614 91.924 70.778 94.3 69.766 96.412C68.798 98.48 67.566 100.24 66.07 101.692C64.618 103.1 62.836 104.178 60.724 104.926C58.612 105.674 56.104 106.048 53.2 106.048C51.044 106.048 49.152 105.74 47.524 105.124C45.896 104.508 44.51 103.65 43.366 102.55C42.266 101.406 41.43 100.064 40.858 98.524C40.286 96.984 40 95.268 40 93.376C40 92.452 40.044 91.484 40.132 90.472C40.264 89.416 40.44 88.316 40.66 87.172L42.838 76.876C44.158 70.628 46.446 65.92 49.702 62.752C53.002 59.584 57.336 58 62.704 58C64.816 58 66.686 58.308 68.314 58.924C69.986 59.54 71.372 60.398 72.472 61.498C73.616 62.554 74.474 63.852 75.046 65.392C75.662 66.888 75.97 68.516 75.97 70.276C75.97 71.684 75.772 73.18 75.376 74.764L75.178 75.556H69.634L69.832 74.764C70.052 73.928 70.184 73.202 70.228 72.586C70.316 71.926 70.36 71.288 70.36 70.672C70.36 68.34 69.678 66.492 68.314 65.128C66.994 63.72 64.838 63.016 61.846 63.016C60.086 63.016 58.48 63.368 57.028 64.072C55.576 64.776 54.278 65.766 53.134 67.042C51.99 68.274 51 69.77 50.164 71.53C49.372 73.246 48.756 75.16 48.316 77.272L46.27 86.776C46.05 87.788 45.874 88.734 45.742 89.614C45.654 90.494 45.61 91.33 45.61 92.122C45.61 95.07 46.27 97.27 47.59 98.722C48.91 100.174 51 100.9 53.86 100.9Z" fill="black"/>
<path d="M82.9861 76.876C84.2621 70.716 86.5061 66.03 89.7181 62.818C92.9741 59.606 97.3301 58 102.786 58C107.054 58 110.31 59.232 112.554 61.696C114.842 64.116 115.986 67.482 115.986 71.794C115.986 72.674 115.92 73.62 115.788 74.632C115.7 75.6 115.546 76.59 115.326 77.602L113.28 87.172C112.004 93.332 109.738 98.018 106.482 101.23C103.27 104.442 98.9361 106.048 93.4801 106.048C89.2121 106.048 85.9341 104.838 83.6461 102.418C81.4021 99.954 80.2801 96.566 80.2801 92.254C80.2801 91.374 80.3241 90.45 80.4121 89.482C80.5441 88.47 80.7201 87.458 80.9401 86.446L82.9861 76.876ZM94.2721 101.032C96.0761 101.032 97.7041 100.702 99.1561 100.042C100.652 99.338 101.95 98.37 103.05 97.138C104.194 95.862 105.14 94.366 105.888 92.65C106.68 90.89 107.318 88.932 107.802 86.776L109.914 76.876C110.266 75.116 110.442 73.576 110.442 72.256C110.442 69.396 109.738 67.152 108.33 65.524C106.922 63.852 104.81 63.016 101.994 63.016C98.3421 63.016 95.3941 64.314 93.1501 66.91C90.9501 69.506 89.3881 72.96 88.4641 77.272L86.3521 87.172C86.0001 88.932 85.8241 90.472 85.8241 91.792C85.8241 94.652 86.5281 96.918 87.9361 98.59C89.3441 100.218 91.4561 101.032 94.2721 101.032Z" fill="black"/>
<path d="M142.34 102.748H143.132L152.438 58.924H157.982L148.148 105.124H137.258L134.618 61.3H133.826L124.52 105.124H118.976L128.81 58.924H139.7L142.34 102.748Z" fill="black"/>
<path d="M165.526 58.924H198.724V64.072H185.326L176.614 105.124H171.07L179.782 64.072H165.526V58.924Z" fill="black"/>
<path d="M226.794 93.64H208.248L202.638 105.124H196.368L219.27 58.924H229.83L233.13 105.124H227.52L226.794 93.64ZM210.756 88.492H226.464L224.748 61.366H223.956L210.756 88.492Z" fill="black"/>
<path d="M255.921 100.9C257.813 100.9 259.463 100.614 260.871 100.042C262.323 99.47 263.555 98.678 264.567 97.666C265.579 96.654 266.415 95.444 267.075 94.036C267.779 92.584 268.351 91 268.791 89.284L268.989 88.492H274.533L274.335 89.284C273.675 91.924 272.839 94.3 271.827 96.412C270.859 98.48 269.627 100.24 268.131 101.692C266.679 103.1 264.897 104.178 262.785 104.926C260.673 105.674 258.165 106.048 255.261 106.048C253.105 106.048 251.213 105.74 249.585 105.124C247.957 104.508 246.571 103.65 245.427 102.55C244.327 101.406 243.491 100.064 242.919 98.524C242.347 96.984 242.061 95.268 242.061 93.376C242.061 92.452 242.105 91.484 242.193 90.472C242.325 89.416 242.501 88.316 242.721 87.172L244.899 76.876C246.219 70.628 248.507 65.92 251.763 62.752C255.063 59.584 259.397 58 264.765 58C266.877 58 268.747 58.308 270.375 58.924C272.047 59.54 273.433 60.398 274.533 61.498C275.677 62.554 276.535 63.852 277.107 65.392C277.723 66.888 278.031 68.516 278.031 70.276C278.031 71.684 277.833 73.18 277.437 74.764L277.239 75.556H271.695L271.893 74.764C272.113 73.928 272.245 73.202 272.289 72.586C272.377 71.926 272.421 71.288 272.421 70.672C272.421 68.34 271.739 66.492 270.375 65.128C269.055 63.72 266.899 63.016 263.907 63.016C262.147 63.016 260.541 63.368 259.089 64.072C257.637 64.776 256.339 65.766 255.195 67.042C254.051 68.274 253.061 69.77 252.225 71.53C251.433 73.246 250.817 75.16 250.377 77.272L248.331 86.776C248.111 87.788 247.935 88.734 247.803 89.614C247.715 90.494 247.671 91.33 247.671 92.122C247.671 95.07 248.331 97.27 249.651 98.722C250.971 100.174 253.061 100.9 255.921 100.9Z" fill="black"/>
<path d="M286.763 58.924H319.961V64.072H306.563L297.851 105.124H292.307L301.019 64.072H286.763V58.924Z" fill="black"/>
<path d="M13.86 42.9C15.752 42.9 17.402 42.614 18.81 42.042C20.262 41.47 21.494 40.678 22.506 39.666C23.518 38.654 24.354 37.444 25.014 36.036C25.718 34.584 26.29 33 26.73 31.284L26.928 30.492H32.472L32.274 31.284C31.614 33.924 30.778 36.3 29.766 38.412C28.798 40.48 27.566 42.24 26.07 43.692C24.618 45.1 22.836 46.178 20.724 46.926C18.612 47.674 16.104 48.048 13.2 48.048C11.044 48.048 9.152 47.74 7.524 47.124C5.896 46.508 4.51 45.65 3.366 44.55C2.266 43.406 1.43 42.064 0.858 40.524C0.286 38.984 0 37.268 0 35.376C0 34.452 0.044 33.484 0.132 32.472C0.264 31.416 0.44 30.316 0.66 29.172L2.838 18.876C4.158 12.628 6.446 7.92 9.702 4.752C13.002 1.584 17.336 0 22.704 0C24.816 0 26.686 0.308 28.314 0.924C29.986 1.54 31.372 2.398 32.472 3.498C33.616 4.554 34.474 5.852 35.046 7.392C35.662 8.888 35.97 10.516 35.97 12.276C35.97 13.684 35.772 15.18 35.376 16.764L35.178 17.556H29.634L29.832 16.764C30.052 15.928 30.184 15.202 30.228 14.586C30.316 13.926 30.36 13.288 30.36 12.672C30.36 10.34 29.678 8.492 28.314 7.128C26.994 5.72 24.838 5.016 21.846 5.016C20.086 5.016 18.48 5.368 17.028 6.072C15.576 6.776 14.278 7.766 13.134 9.042C11.99 10.274 11 11.77 10.164 13.53C9.372 15.246 8.756 17.16 8.316 19.272L6.27 28.776C6.05 29.788 5.874 30.734 5.742 31.614C5.654 32.494 5.61 33.33 5.61 34.122C5.61 37.07 6.27 39.27 7.59 40.722C8.91 42.174 11 42.9 13.86 42.9Z" fill="black"/>
<path d="M42.9861 18.876C44.2621 12.716 46.5061 8.03 49.7181 4.818C52.9741 1.606 57.3301 0 62.7861 0C67.0541 0 70.3101 1.232 72.5541 3.696C74.8421 6.116 75.9861 9.482 75.9861 13.794C75.9861 14.674 75.9201 15.62 75.7881 16.632C75.7001 17.6 75.5461 18.59 75.3261 19.602L73.2801 29.172C72.0041 35.332 69.7381 40.018 66.4821 43.23C63.2701 46.442 58.9361 48.048 53.4801 48.048C49.2121 48.048 45.9341 46.838 43.6461 44.418C41.4021 41.954 40.2801 38.566 40.2801 34.254C40.2801 33.374 40.3241 32.45 40.4121 31.482C40.5441 30.47 40.7201 29.458 40.9401 28.446L42.9861 18.876ZM54.2721 43.032C56.0761 43.032 57.7041 42.702 59.1561 42.042C60.6521 41.338 61.9501 40.37 63.0501 39.138C64.1941 37.862 65.1401 36.366 65.8881 34.65C66.6801 32.89 67.3181 30.932 67.8021 28.776L69.9141 18.876C70.2661 17.116 70.4421 15.576 70.4421 14.256C70.4421 11.396 69.7381 9.152 68.3301 7.524C66.9221 5.852 64.8101 5.016 61.9941 5.016C58.3421 5.016 55.3941 6.314 53.1501 8.91C50.9501 11.506 49.3881 14.96 48.4641 19.272L46.3521 29.172C46.0001 30.932 45.8241 32.472 45.8241 33.792C45.8241 36.652 46.5281 38.918 47.9361 40.59C49.3441 42.218 51.4561 43.032 54.2721 43.032Z" fill="black"/>
<path d="M102.34 44.748H103.132L112.438 0.924H117.982L108.148 47.124H97.2582L94.6182 3.3H93.8262L84.5202 47.124H78.9762L88.8102 0.924H99.7002L102.34 44.748Z" fill="black"/>
<path d="M125.526 0.924H158.724V6.072H145.326L136.614 47.124H131.07L139.782 6.072H125.526V0.924Z" fill="black"/>
<path d="M186.794 35.64H168.248L162.638 47.124H156.368L179.27 0.924H189.83L193.13 47.124H187.52L186.794 35.64ZM170.756 30.492H186.464L184.748 3.366H183.956L170.756 30.492Z" fill="black"/>
<path d="M215.921 42.9C217.813 42.9 219.463 42.614 220.871 42.042C222.323 41.47 223.555 40.678 224.567 39.666C225.579 38.654 226.415 37.444 227.075 36.036C227.779 34.584 228.351 33 228.791 31.284L228.989 30.492H234.533L234.335 31.284C233.675 33.924 232.839 36.3 231.827 38.412C230.859 40.48 229.627 42.24 228.131 43.692C226.679 45.1 224.897 46.178 222.785 46.926C220.673 47.674 218.165 48.048 215.261 48.048C213.105 48.048 211.213 47.74 209.585 47.124C207.957 46.508 206.571 45.65 205.427 44.55C204.327 43.406 203.491 42.064 202.919 40.524C202.347 38.984 202.061 37.268 202.061 35.376C202.061 34.452 202.105 33.484 202.193 32.472C202.325 31.416 202.501 30.316 202.721 29.172L204.899 18.876C206.219 12.628 208.507 7.92 211.763 4.752C215.063 1.584 219.397 0 224.765 0C226.877 0 228.747 0.308 230.375 0.924C232.047 1.54 233.433 2.398 234.533 3.498C235.677 4.554 236.535 5.852 237.107 7.392C237.723 8.888 238.031 10.516 238.031 12.276C238.031 13.684 237.833 15.18 237.437 16.764L237.239 17.556H231.695L231.893 16.764C232.113 15.928 232.245 15.202 232.289 14.586C232.377 13.926 232.421 13.288 232.421 12.672C232.421 10.34 231.739 8.492 230.375 7.128C229.055 5.72 226.899 5.016 223.907 5.016C222.147 5.016 220.541 5.368 219.089 6.072C217.637 6.776 216.339 7.766 215.195 9.042C214.051 10.274 213.061 11.77 212.225 13.53C211.433 15.246 210.817 17.16 210.377 19.272L208.331 28.776C208.111 29.788 207.935 30.734 207.803 31.614C207.715 32.494 207.671 33.33 207.671 34.122C207.671 37.07 208.331 39.27 209.651 40.722C210.971 42.174 213.061 42.9 215.921 42.9Z" fill="black"/>
<path d="M246.763 0.924H279.961V6.072H266.563L257.851 47.124H252.307L261.019 6.072H246.763V0.924Z" fill="black"/>
<path d="M336.86 100.9C338.752 100.9 340.402 100.614 341.81 100.042C343.262 99.47 344.494 98.678 345.506 97.666C346.518 96.654 347.354 95.444 348.014 94.036C348.718 92.584 349.29 91 349.73 89.284L349.928 88.492H355.472L355.274 89.284C354.614 91.924 353.778 94.3 352.766 96.412C351.798 98.48 350.566 100.24 349.07 101.692C347.618 103.1 345.836 104.178 343.724 104.926C341.612 105.674 339.104 106.048 336.2 106.048C334.044 106.048 332.152 105.74 330.524 105.124C328.896 104.508 327.51 103.65 326.366 102.55C325.266 101.406 324.43 100.064 323.858 98.524C323.286 96.984 323 95.268 323 93.376C323 92.452 323.044 91.484 323.132 90.472C323.264 89.416 323.44 88.316 323.66 87.172L325.838 76.876C327.158 70.628 329.446 65.92 332.702 62.752C336.002 59.584 340.336 58 345.704 58C347.816 58 349.686 58.308 351.314 58.924C352.986 59.54 354.372 60.398 355.472 61.498C356.616 62.554 357.474 63.852 358.046 65.392C358.662 66.888 358.97 68.516 358.97 70.276C358.97 71.684 358.772 73.18 358.376 74.764L358.178 75.556H352.634L352.832 74.764C353.052 73.928 353.184 73.202 353.228 72.586C353.316 71.926 353.36 71.288 353.36 70.672C353.36 68.34 352.678 66.492 351.314 65.128C349.994 63.72 347.838 63.016 344.846 63.016C343.086 63.016 341.48 63.368 340.028 64.072C338.576 64.776 337.278 65.766 336.134 67.042C334.99 68.274 334 69.77 333.164 71.53C332.372 73.246 331.756 75.16 331.316 77.272L329.27 86.776C329.05 87.788 328.874 88.734 328.742 89.614C328.654 90.494 328.61 91.33 328.61 92.122C328.61 95.07 329.27 97.27 330.59 98.722C331.91 100.174 334 100.9 336.86 100.9Z" fill="black"/>
<path d="M365.986 76.876C367.262 70.716 369.506 66.03 372.718 62.818C375.974 59.606 380.33 58 385.786 58C390.054 58 393.31 59.232 395.554 61.696C397.842 64.116 398.986 67.482 398.986 71.794C398.986 72.674 398.92 73.62 398.788 74.632C398.7 75.6 398.546 76.59 398.326 77.602L396.28 87.172C395.004 93.332 392.738 98.018 389.482 101.23C386.27 104.442 381.936 106.048 376.48 106.048C372.212 106.048 368.934 104.838 366.646 102.418C364.402 99.954 363.28 96.566 363.28 92.254C363.28 91.374 363.324 90.45 363.412 89.482C363.544 88.47 363.72 87.458 363.94 86.446L365.986 76.876ZM377.272 101.032C379.076 101.032 380.704 100.702 382.156 100.042C383.652 99.338 384.95 98.37 386.05 97.138C387.194 95.862 388.14 94.366 388.888 92.65C389.68 90.89 390.318 88.932 390.802 86.776L392.914 76.876C393.266 75.116 393.442 73.576 393.442 72.256C393.442 69.396 392.738 67.152 391.33 65.524C389.922 63.852 387.81 63.016 384.994 63.016C381.342 63.016 378.394 64.314 376.15 66.91C373.95 69.506 372.388 72.96 371.464 77.272L369.352 87.172C369 88.932 368.824 90.472 368.824 91.792C368.824 94.652 369.528 96.918 370.936 98.59C372.344 100.218 374.456 101.032 377.272 101.032Z" fill="black"/>
<path d="M425.34 102.748H426.132L435.438 58.924H440.982L431.148 105.124H420.258L417.618 61.3H416.826L407.52 105.124H401.976L411.81 58.924H422.7L425.34 102.748Z" fill="black"/>
<path d="M448.526 58.924H481.724V64.072H468.326L459.614 105.124H454.07L462.782 64.072H448.526V58.924Z" fill="black"/>
<path d="M509.794 93.64H491.248L485.638 105.124H479.368L502.27 58.924H512.83L516.13 105.124H510.52L509.794 93.64ZM493.756 88.492H509.464L507.748 61.366H506.956L493.756 88.492Z" fill="black"/>
<path d="M538.921 100.9C540.813 100.9 542.463 100.614 543.871 100.042C545.323 99.47 546.555 98.678 547.567 97.666C548.579 96.654 549.415 95.444 550.075 94.036C550.779 92.584 551.351 91 551.791 89.284L551.989 88.492H557.533L557.335 89.284C556.675 91.924 555.839 94.3 554.827 96.412C553.859 98.48 552.627 100.24 551.131 101.692C549.679 103.1 547.897 104.178 545.785 104.926C543.673 105.674 541.165 106.048 538.261 106.048C536.105 106.048 534.213 105.74 532.585 105.124C530.957 104.508 529.571 103.65 528.427 102.55C527.327 101.406 526.491 100.064 525.919 98.524C525.347 96.984 525.061 95.268 525.061 93.376C525.061 92.452 525.105 91.484 525.193 90.472C525.325 89.416 525.501 88.316 525.721 87.172L527.899 76.876C529.219 70.628 531.507 65.92 534.763 62.752C538.063 59.584 542.397 58 547.765 58C549.877 58 551.747 58.308 553.375 58.924C555.047 59.54 556.433 60.398 557.533 61.498C558.677 62.554 559.535 63.852 560.107 65.392C560.723 66.888 561.031 68.516 561.031 70.276C561.031 71.684 560.833 73.18 560.437 74.764L560.239 75.556H554.695L554.893 74.764C555.113 73.928 555.245 73.202 555.289 72.586C555.377 71.926 555.421 71.288 555.421 70.672C555.421 68.34 554.739 66.492 553.375 65.128C552.055 63.72 549.899 63.016 546.907 63.016C545.147 63.016 543.541 63.368 542.089 64.072C540.637 64.776 539.339 65.766 538.195 67.042C537.051 68.274 536.061 69.77 535.225 71.53C534.433 73.246 533.817 75.16 533.377 77.272L531.331 86.776C531.111 87.788 530.935 88.734 530.803 89.614C530.715 90.494 530.671 91.33 530.671 92.122C530.671 95.07 531.331 97.27 532.651 98.722C533.971 100.174 536.061 100.9 538.921 100.9Z" fill="black"/>
<path d="M569.763 58.924H602.961V64.072H589.563L580.851 105.124H575.307L584.019 64.072H569.763V58.924Z" fill="black"/>
<path d="M296.86 42.9C298.752 42.9 300.402 42.614 301.81 42.042C303.262 41.47 304.494 40.678 305.506 39.666C306.518 38.654 307.354 37.444 308.014 36.036C308.718 34.584 309.29 33 309.73 31.284L309.928 30.492H315.472L315.274 31.284C314.614 33.924 313.778 36.3 312.766 38.412C311.798 40.48 310.566 42.24 309.07 43.692C307.618 45.1 305.836 46.178 303.724 46.926C301.612 47.674 299.104 48.048 296.2 48.048C294.044 48.048 292.152 47.74 290.524 47.124C288.896 46.508 287.51 45.65 286.366 44.55C285.266 43.406 284.43 42.064 283.858 40.524C283.286 38.984 283 37.268 283 35.376C283 34.452 283.044 33.484 283.132 32.472C283.264 31.416 283.44 30.316 283.66 29.172L285.838 18.876C287.158 12.628 289.446 7.92 292.702 4.752C296.002 1.584 300.336 0 305.704 0C307.816 0 309.686 0.308 311.314 0.924C312.986 1.54 314.372 2.398 315.472 3.498C316.616 4.554 317.474 5.852 318.046 7.392C318.662 8.888 318.97 10.516 318.97 12.276C318.97 13.684 318.772 15.18 318.376 16.764L318.178 17.556H312.634L312.832 16.764C313.052 15.928 313.184 15.202 313.228 14.586C313.316 13.926 313.36 13.288 313.36 12.672C313.36 10.34 312.678 8.492 311.314 7.128C309.994 5.72 307.838 5.016 304.846 5.016C303.086 5.016 301.48 5.368 300.028 6.072C298.576 6.776 297.278 7.766 296.134 9.042C294.99 10.274 294 11.77 293.164 13.53C292.372 15.246 291.756 17.16 291.316 19.272L289.27 28.776C289.05 29.788 288.874 30.734 288.742 31.614C288.654 32.494 288.61 33.33 288.61 34.122C288.61 37.07 289.27 39.27 290.59 40.722C291.91 42.174 294 42.9 296.86 42.9Z" fill="black"/>
<path d="M325.986 18.876C327.262 12.716 329.506 8.03 332.718 4.818C335.974 1.606 340.33 0 345.786 0C350.054 0 353.31 1.232 355.554 3.696C357.842 6.116 358.986 9.482 358.986 13.794C358.986 14.674 358.92 15.62 358.788 16.632C358.7 17.6 358.546 18.59 358.326 19.602L356.28 29.172C355.004 35.332 352.738 40.018 349.482 43.23C346.27 46.442 341.936 48.048 336.48 48.048C332.212 48.048 328.934 46.838 326.646 44.418C324.402 41.954 323.28 38.566 323.28 34.254C323.28 33.374 323.324 32.45 323.412 31.482C323.544 30.47 323.72 29.458 323.94 28.446L325.986 18.876ZM337.272 43.032C339.076 43.032 340.704 42.702 342.156 42.042C343.652 41.338 344.95 40.37 346.05 39.138C347.194 37.862 348.14 36.366 348.888 34.65C349.68 32.89 350.318 30.932 350.802 28.776L352.914 18.876C353.266 17.116 353.442 15.576 353.442 14.256C353.442 11.396 352.738 9.152 351.33 7.524C349.922 5.852 347.81 5.016 344.994 5.016C341.342 5.016 338.394 6.314 336.15 8.91C333.95 11.506 332.388 14.96 331.464 19.272L329.352 29.172C329 30.932 328.824 32.472 328.824 33.792C328.824 36.652 329.528 38.918 330.936 40.59C332.344 42.218 334.456 43.032 337.272 43.032Z" fill="black"/>
<path d="M385.34 44.748H386.132L395.438 0.924H400.982L391.148 47.124H380.258L377.618 3.3H376.826L367.52 47.124H361.976L371.81 0.924H382.7L385.34 44.748Z" fill="black"/>
<path d="M408.526 0.924H441.724V6.072H428.326L419.614 47.124H414.07L422.782 6.072H408.526V0.924Z" fill="black"/>
<path d="M469.794 35.64H451.248L445.638 47.124H439.368L462.27 0.924H472.83L476.13 47.124H470.52L469.794 35.64ZM453.756 30.492H469.464L467.748 3.366H466.956L453.756 30.492Z" fill="black"/>
<path d="M498.921 42.9C500.813 42.9 502.463 42.614 503.871 42.042C505.323 41.47 506.555 40.678 507.567 39.666C508.579 38.654 509.415 37.444 510.075 36.036C510.779 34.584 511.351 33 511.791 31.284L511.989 30.492H517.533L517.335 31.284C516.675 33.924 515.839 36.3 514.827 38.412C513.859 40.48 512.627 42.24 511.131 43.692C509.679 45.1 507.897 46.178 505.785 46.926C503.673 47.674 501.165 48.048 498.261 48.048C496.105 48.048 494.213 47.74 492.585 47.124C490.957 46.508 489.571 45.65 488.427 44.55C487.327 43.406 486.491 42.064 485.919 40.524C485.347 38.984 485.061 37.268 485.061 35.376C485.061 34.452 485.105 33.484 485.193 32.472C485.325 31.416 485.501 30.316 485.721 29.172L487.899 18.876C489.219 12.628 491.507 7.92 494.763 4.752C498.063 1.584 502.397 0 507.765 0C509.877 0 511.747 0.308 513.375 0.924C515.047 1.54 516.433 2.398 517.533 3.498C518.677 4.554 519.535 5.852 520.107 7.392C520.723 8.888 521.031 10.516 521.031 12.276C521.031 13.684 520.833 15.18 520.437 16.764L520.239 17.556H514.695L514.893 16.764C515.113 15.928 515.245 15.202 515.289 14.586C515.377 13.926 515.421 13.288 515.421 12.672C515.421 10.34 514.739 8.492 513.375 7.128C512.055 5.72 509.899 5.016 506.907 5.016C505.147 5.016 503.541 5.368 502.089 6.072C500.637 6.776 499.339 7.766 498.195 9.042C497.051 10.274 496.061 11.77 495.225 13.53C494.433 15.246 493.817 17.16 493.377 19.272L491.331 28.776C491.111 29.788 490.935 30.734 490.803 31.614C490.715 32.494 490.671 33.33 490.671 34.122C490.671 37.07 491.331 39.27 492.651 40.722C493.971 42.174 496.061 42.9 498.921 42.9Z" fill="black"/>
<path d="M529.763 0.924H562.961V6.072H549.563L540.851 47.124H535.307L544.019 6.072H529.763V0.924Z" fill="black"/>
<path d="M619.86 100.9C621.752 100.9 623.402 100.614 624.81 100.042C626.262 99.47 627.494 98.678 628.506 97.666C629.518 96.654 630.354 95.444 631.014 94.036C631.718 92.584 632.29 91 632.73 89.284L632.928 88.492H638.472L638.274 89.284C637.614 91.924 636.778 94.3 635.766 96.412C634.798 98.48 633.566 100.24 632.07 101.692C630.618 103.1 628.836 104.178 626.724 104.926C624.612 105.674 622.104 106.048 619.2 106.048C617.044 106.048 615.152 105.74 613.524 105.124C611.896 104.508 610.51 103.65 609.366 102.55C608.266 101.406 607.43 100.064 606.858 98.524C606.286 96.984 606 95.268 606 93.376C606 92.452 606.044 91.484 606.132 90.472C606.264 89.416 606.44 88.316 606.66 87.172L608.838 76.876C610.158 70.628 612.446 65.92 615.702 62.752C619.002 59.584 623.336 58 628.704 58C630.816 58 632.686 58.308 634.314 58.924C635.986 59.54 637.372 60.398 638.472 61.498C639.616 62.554 640.474 63.852 641.046 65.392C641.662 66.888 641.97 68.516 641.97 70.276C641.97 71.684 641.772 73.18 641.376 74.764L641.178 75.556H635.634L635.832 74.764C636.052 73.928 636.184 73.202 636.228 72.586C636.316 71.926 636.36 71.288 636.36 70.672C636.36 68.34 635.678 66.492 634.314 65.128C632.994 63.72 630.838 63.016 627.846 63.016C626.086 63.016 624.48 63.368 623.028 64.072C621.576 64.776 620.278 65.766 619.134 67.042C617.99 68.274 617 69.77 616.164 71.53C615.372 73.246 614.756 75.16 614.316 77.272L612.27 86.776C612.05 87.788 611.874 88.734 611.742 89.614C611.654 90.494 611.61 91.33 611.61 92.122C611.61 95.07 612.27 97.27 613.59 98.722C614.91 100.174 617 100.9 619.86 100.9Z" fill="black"/>
<path d="M648.986 76.876C650.262 70.716 652.506 66.03 655.718 62.818C658.974 59.606 663.33 58 668.786 58C673.054 58 676.31 59.232 678.554 61.696C680.842 64.116 681.986 67.482 681.986 71.794C681.986 72.674 681.92 73.62 681.788 74.632C681.7 75.6 681.546 76.59 681.326 77.602L679.28 87.172C678.004 93.332 675.738 98.018 672.482 101.23C669.27 104.442 664.936 106.048 659.48 106.048C655.212 106.048 651.934 104.838 649.646 102.418C647.402 99.954 646.28 96.566 646.28 92.254C646.28 91.374 646.324 90.45 646.412 89.482C646.544 88.47 646.72 87.458 646.94 86.446L648.986 76.876ZM660.272 101.032C662.076 101.032 663.704 100.702 665.156 100.042C666.652 99.338 667.95 98.37 669.05 97.138C670.194 95.862 671.14 94.366 671.888 92.65C672.68 90.89 673.318 88.932 673.802 86.776L675.914 76.876C676.266 75.116 676.442 73.576 676.442 72.256C676.442 69.396 675.738 67.152 674.33 65.524C672.922 63.852 670.81 63.016 667.994 63.016C664.342 63.016 661.394 64.314 659.15 66.91C656.95 69.506 655.388 72.96 654.464 77.272L652.352 87.172C652 88.932 651.824 90.472 651.824 91.792C651.824 94.652 652.528 96.918 653.936 98.59C655.344 100.218 657.456 101.032 660.272 101.032Z" fill="black"/>
<path d="M708.34 102.748H709.132L718.438 58.924H723.982L714.148 105.124H703.258L700.618 61.3H699.826L690.52 105.124H684.976L694.81 58.924H705.7L708.34 102.748Z" fill="black"/>
<path d="M731.526 58.924H764.724V64.072H751.326L742.614 105.124H737.07L745.782 64.072H731.526V58.924Z" fill="black"/>
<path d="M792.794 93.64H774.248L768.638 105.124H762.368L785.27 58.924H795.83L799.13 105.124H793.52L792.794 93.64ZM776.756 88.492H792.464L790.748 61.366H789.956L776.756 88.492Z" fill="black"/>
<path d="M821.921 100.9C823.813 100.9 825.463 100.614 826.871 100.042C828.323 99.47 829.555 98.678 830.567 97.666C831.579 96.654 832.415 95.444 833.075 94.036C833.779 92.584 834.351 91 834.791 89.284L834.989 88.492H840.533L840.335 89.284C839.675 91.924 838.839 94.3 837.827 96.412C836.859 98.48 835.627 100.24 834.131 101.692C832.679 103.1 830.897 104.178 828.785 104.926C826.673 105.674 824.165 106.048 821.261 106.048C819.105 106.048 817.213 105.74 815.585 105.124C813.957 104.508 812.571 103.65 811.427 102.55C810.327 101.406 809.491 100.064 808.919 98.524C808.347 96.984 808.061 95.268 808.061 93.376C808.061 92.452 808.105 91.484 808.193 90.472C808.325 89.416 808.501 88.316 808.721 87.172L810.899 76.876C812.219 70.628 814.507 65.92 817.763 62.752C821.063 59.584 825.397 58 830.765 58C832.877 58 834.747 58.308 836.375 58.924C838.047 59.54 839.433 60.398 840.533 61.498C841.677 62.554 842.535 63.852 843.107 65.392C843.723 66.888 844.031 68.516 844.031 70.276C844.031 71.684 843.833 73.18 843.437 74.764L843.239 75.556H837.695L837.893 74.764C838.113 73.928 838.245 73.202 838.289 72.586C838.377 71.926 838.421 71.288 838.421 70.672C838.421 68.34 837.739 66.492 836.375 65.128C835.055 63.72 832.899 63.016 829.907 63.016C828.147 63.016 826.541 63.368 825.089 64.072C823.637 64.776 822.339 65.766 821.195 67.042C820.051 68.274 819.061 69.77 818.225 71.53C817.433 73.246 816.817 75.16 816.377 77.272L814.331 86.776C814.111 87.788 813.935 88.734 813.803 89.614C813.715 90.494 813.671 91.33 813.671 92.122C813.671 95.07 814.331 97.27 815.651 98.722C816.971 100.174 819.061 100.9 821.921 100.9Z" fill="black"/>
<path d="M852.763 58.924H885.961V64.072H872.563L863.851 105.124H858.307L867.019 64.072H852.763V58.924Z" fill="black"/>
<path d="M579.86 42.9C581.752 42.9 583.402 42.614 584.81 42.042C586.262 41.47 587.494 40.678 588.506 39.666C589.518 38.654 590.354 37.444 591.014 36.036C591.718 34.584 592.29 33 592.73 31.284L592.928 30.492H598.472L598.274 31.284C597.614 33.924 596.778 36.3 595.766 38.412C594.798 40.48 593.566 42.24 592.07 43.692C590.618 45.1 588.836 46.178 586.724 46.926C584.612 47.674 582.104 48.048 579.2 48.048C577.044 48.048 575.152 47.74 573.524 47.124C571.896 46.508 570.51 45.65 569.366 44.55C568.266 43.406 567.43 42.064 566.858 40.524C566.286 38.984 566 37.268 566 35.376C566 34.452 566.044 33.484 566.132 32.472C566.264 31.416 566.44 30.316 566.66 29.172L568.838 18.876C570.158 12.628 572.446 7.92 575.702 4.752C579.002 1.584 583.336 0 588.704 0C590.816 0 592.686 0.308 594.314 0.924C595.986 1.54 597.372 2.398 598.472 3.498C599.616 4.554 600.474 5.852 601.046 7.392C601.662 8.888 601.97 10.516 601.97 12.276C601.97 13.684 601.772 15.18 601.376 16.764L601.178 17.556H595.634L595.832 16.764C596.052 15.928 596.184 15.202 596.228 14.586C596.316 13.926 596.36 13.288 596.36 12.672C596.36 10.34 595.678 8.492 594.314 7.128C592.994 5.72 590.838 5.016 587.846 5.016C586.086 5.016 584.48 5.368 583.028 6.072C581.576 6.776 580.278 7.766 579.134 9.042C577.99 10.274 577 11.77 576.164 13.53C575.372 15.246 574.756 17.16 574.316 19.272L572.27 28.776C572.05 29.788 571.874 30.734 571.742 31.614C571.654 32.494 571.61 33.33 571.61 34.122C571.61 37.07 572.27 39.27 573.59 40.722C574.91 42.174 577 42.9 579.86 42.9Z" fill="black"/>
<path d="M608.986 18.876C610.262 12.716 612.506 8.03 615.718 4.818C618.974 1.606 623.33 0 628.786 0C633.054 0 636.31 1.232 638.554 3.696C640.842 6.116 641.986 9.482 641.986 13.794C641.986 14.674 641.92 15.62 641.788 16.632C641.7 17.6 641.546 18.59 641.326 19.602L639.28 29.172C638.004 35.332 635.738 40.018 632.482 43.23C629.27 46.442 624.936 48.048 619.48 48.048C615.212 48.048 611.934 46.838 609.646 44.418C607.402 41.954 606.28 38.566 606.28 34.254C606.28 33.374 606.324 32.45 606.412 31.482C606.544 30.47 606.72 29.458 606.94 28.446L608.986 18.876ZM620.272 43.032C622.076 43.032 623.704 42.702 625.156 42.042C626.652 41.338 627.95 40.37 629.05 39.138C630.194 37.862 631.14 36.366 631.888 34.65C632.68 32.89 633.318 30.932 633.802 28.776L635.914 18.876C636.266 17.116 636.442 15.576 636.442 14.256C636.442 11.396 635.738 9.152 634.33 7.524C632.922 5.852 630.81 5.016 627.994 5.016C624.342 5.016 621.394 6.314 619.15 8.91C616.95 11.506 615.388 14.96 614.464 19.272L612.352 29.172C612 30.932 611.824 32.472 611.824 33.792C611.824 36.652 612.528 38.918 613.936 40.59C615.344 42.218 617.456 43.032 620.272 43.032Z" fill="black"/>
<path d="M668.34 44.748H669.132L678.438 0.924H683.982L674.148 47.124H663.258L660.618 3.3H659.826L650.52 47.124H644.976L654.81 0.924H665.7L668.34 44.748Z" fill="black"/>
<path d="M691.526 0.924H724.724V6.072H711.326L702.614 47.124H697.07L705.782 6.072H691.526V0.924Z" fill="black"/>
<path d="M752.794 35.64H734.248L728.638 47.124H722.368L745.27 0.924H755.83L759.13 47.124H753.52L752.794 35.64ZM736.756 30.492H752.464L750.748 3.366H749.956L736.756 30.492Z" fill="black"/>
<path d="M781.921 42.9C783.813 42.9 785.463 42.614 786.871 42.042C788.323 41.47 789.555 40.678 790.567 39.666C791.579 38.654 792.415 37.444 793.075 36.036C793.779 34.584 794.351 33 794.791 31.284L794.989 30.492H800.533L800.335 31.284C799.675 33.924 798.839 36.3 797.827 38.412C796.859 40.48 795.627 42.24 794.131 43.692C792.679 45.1 790.897 46.178 788.785 46.926C786.673 47.674 784.165 48.048 781.261 48.048C779.105 48.048 777.213 47.74 775.585 47.124C773.957 46.508 772.571 45.65 771.427 44.55C770.327 43.406 769.491 42.064 768.919 40.524C768.347 38.984 768.061 37.268 768.061 35.376C768.061 34.452 768.105 33.484 768.193 32.472C768.325 31.416 768.501 30.316 768.721 29.172L770.899 18.876C772.219 12.628 774.507 7.92 777.763 4.752C781.063 1.584 785.397 0 790.765 0C792.877 0 794.747 0.308 796.375 0.924C798.047 1.54 799.433 2.398 800.533 3.498C801.677 4.554 802.535 5.852 803.107 7.392C803.723 8.888 804.031 10.516 804.031 12.276C804.031 13.684 803.833 15.18 803.437 16.764L803.239 17.556H797.695L797.893 16.764C798.113 15.928 798.245 15.202 798.289 14.586C798.377 13.926 798.421 13.288 798.421 12.672C798.421 10.34 797.739 8.492 796.375 7.128C795.055 5.72 792.899 5.016 789.907 5.016C788.147 5.016 786.541 5.368 785.089 6.072C783.637 6.776 782.339 7.766 781.195 9.042C780.051 10.274 779.061 11.77 778.225 13.53C777.433 15.246 776.817 17.16 776.377 19.272L774.331 28.776C774.111 29.788 773.935 30.734 773.803 31.614C773.715 32.494 773.671 33.33 773.671 34.122C773.671 37.07 774.331 39.27 775.651 40.722C776.971 42.174 779.061 42.9 781.921 42.9Z" fill="black"/>
<path d="M812.763 0.924H845.961V6.072H832.563L823.851 47.124H818.307L827.019 6.072H812.763V0.924Z" fill="black"/>
</svg>
