<svg width="1000" height="142" viewBox="0 0 1000 142" fill="none" xmlns="http://www.w3.org/2000/svg">
<mask id="path-1-outside-1_2_572" maskUnits="userSpaceOnUse" x="-4" y="35" width="1006" height="77" fill="black">
<rect fill="white" x="-4" y="35" width="1006" height="77"/>
<path d="M17.952 81.656L12.576 107H0L14.208 39.8H38.208C41.024 39.8 43.552 40.248 45.792 41.144C48.096 42.04 50.048 43.288 51.648 44.888C53.248 46.488 54.464 48.376 55.296 50.552C56.192 52.728 56.64 55.096 56.64 57.656C56.64 61.24 56.032 64.504 54.816 67.448C53.6 70.392 51.872 72.92 49.632 75.032C47.392 77.144 44.704 78.776 41.568 79.928C38.432 81.08 34.944 81.656 31.104 81.656H17.952ZM20.544 69.56H32.256C35.52 69.56 38.24 68.6 40.416 66.68C42.592 64.76 43.68 62.264 43.68 59.192C43.68 56.824 42.912 55.032 41.376 53.816C39.904 52.536 37.952 51.896 35.52 51.896H24.288L20.544 69.56ZM72.9893 39.8H85.6613L79.8053 67.256H99.0053L104.861 39.8H117.533L103.229 107H90.5573L96.4133 79.352H77.2133L71.3573 107H58.7812L72.9893 39.8ZM123.803 65.912C125.787 56.44 129.083 49.496 133.691 45.08C138.363 40.664 144.763 38.456 152.891 38.456C156.283 38.456 159.291 39 161.915 40.088C164.539 41.112 166.747 42.584 168.539 44.504C170.331 46.36 171.675 48.568 172.571 51.128C173.531 53.688 174.01 56.44 174.01 59.384C174.01 60.472 173.947 61.56 173.819 62.648C173.755 63.736 173.595 64.824 173.339 65.912L170.171 80.888C168.187 90.36 164.859 97.304 160.187 101.72C155.579 106.136 149.211 108.344 141.083 108.344C137.691 108.344 134.683 107.832 132.059 106.808C129.435 105.72 127.227 104.248 125.435 102.392C123.643 100.472 122.267 98.264 121.307 95.768C120.411 93.208 119.963 90.424 119.963 87.416C119.963 86.328 119.995 85.24 120.059 84.152C120.187 83.064 120.379 81.976 120.635 80.888L123.803 65.912ZM142.234 96.824C144.411 96.824 146.331 96.44 147.995 95.672C149.659 94.84 151.099 93.752 152.315 92.408C153.595 91.064 154.619 89.464 155.387 87.608C156.219 85.752 156.859 83.768 157.307 81.656L160.859 65.144C161.051 64.12 161.179 63.256 161.243 62.552C161.371 61.784 161.435 61.048 161.435 60.344C161.435 57.08 160.571 54.552 158.843 52.76C157.179 50.904 154.811 49.976 151.739 49.976C149.563 49.976 147.643 50.392 145.979 51.224C144.315 51.992 142.843 53.048 141.562 54.392C140.347 55.736 139.323 57.336 138.491 59.192C137.723 61.048 137.115 63.032 136.667 65.144L133.115 81.656C132.731 83.384 132.539 84.984 132.539 86.456C132.539 89.72 133.371 92.28 135.035 94.136C136.763 95.928 139.163 96.824 142.234 96.824ZM185.944 39.8H234.328V51.896H216.472L204.76 107H192.088L203.8 51.896H185.944V39.8ZM241.365 65.912C243.349 56.44 246.645 49.496 251.253 45.08C255.925 40.664 262.325 38.456 270.453 38.456C273.845 38.456 276.853 39 279.477 40.088C282.101 41.112 284.309 42.584 286.101 44.504C287.893 46.36 289.237 48.568 290.133 51.128C291.093 53.688 291.573 56.44 291.573 59.384C291.573 60.472 291.509 61.56 291.381 62.648C291.317 63.736 291.157 64.824 290.901 65.912L287.733 80.888C285.749 90.36 282.421 97.304 277.749 101.72C273.141 106.136 266.773 108.344 258.645 108.344C255.253 108.344 252.245 107.832 249.621 106.808C246.997 105.72 244.789 104.248 242.997 102.392C241.205 100.472 239.829 98.264 238.869 95.768C237.973 93.208 237.525 90.424 237.525 87.416C237.525 86.328 237.557 85.24 237.621 84.152C237.749 83.064 237.941 81.976 238.197 80.888L241.365 65.912ZM259.797 96.824C261.973 96.824 263.893 96.44 265.557 95.672C267.221 94.84 268.661 93.752 269.877 92.408C271.157 91.064 272.181 89.464 272.949 87.608C273.781 85.752 274.421 83.768 274.869 81.656L278.421 65.144C278.613 64.12 278.741 63.256 278.805 62.552C278.933 61.784 278.997 61.048 278.997 60.344C278.997 57.08 278.133 54.552 276.405 52.76C274.741 50.904 272.373 49.976 269.301 49.976C267.125 49.976 265.205 50.392 263.541 51.224C261.877 51.992 260.405 53.048 259.125 54.392C257.909 55.736 256.885 57.336 256.053 59.192C255.285 61.048 254.677 63.032 254.229 65.144L250.677 81.656C250.293 83.384 250.101 84.984 250.101 86.456C250.101 89.72 250.933 92.28 252.597 94.136C254.325 95.928 256.725 96.824 259.797 96.824ZM318.098 73.016H347.762V74.168L340.85 107H329.33L330.962 99.512H329.234C327.954 102.008 326.034 104.12 323.474 105.848C320.914 107.512 317.458 108.344 313.106 108.344C310.61 108.344 308.306 107.928 306.194 107.096C304.082 106.328 302.258 105.144 300.722 103.544C299.186 101.944 297.97 99.992 297.074 97.688C296.242 95.32 295.826 92.6 295.826 89.528C295.826 87.032 296.146 84.28 296.786 81.272L300.146 65.528C302.13 56.248 305.65 49.432 310.706 45.08C315.826 40.664 322.45 38.456 330.578 38.456C333.778 38.456 336.626 38.968 339.122 39.992C341.682 40.952 343.826 42.296 345.554 44.024C347.282 45.752 348.594 47.768 349.49 50.072C350.45 52.312 350.93 54.712 350.93 57.272C350.93 58.168 350.866 59.128 350.738 60.152C350.61 61.112 350.45 62.008 350.258 62.84L349.97 63.992H337.298L337.586 62.84C337.778 62.072 337.906 61.4 337.97 60.824C338.034 60.248 338.066 59.672 338.066 59.096C338.066 56.408 337.234 54.328 335.57 52.856C333.906 51.32 331.474 50.552 328.274 50.552C326.482 50.552 324.786 50.84 323.186 51.416C321.586 51.992 320.082 52.92 318.674 54.2C317.33 55.416 316.146 57.048 315.122 59.096C314.098 61.08 313.266 63.544 312.626 66.488L309.554 80.696C309.298 81.848 309.138 82.808 309.074 83.576C309.01 84.344 308.978 85.112 308.978 85.88C308.978 89.336 309.874 91.928 311.666 93.656C313.458 95.384 315.89 96.248 318.962 96.248C322.738 96.248 325.81 95.256 328.178 93.272C330.61 91.224 332.178 88.504 332.882 85.112H318.098V73.016ZM397.232 107H384.368L388.688 86.84C388.816 86.2 388.88 85.688 388.88 85.304C388.88 84.216 388.528 83.352 387.824 82.712C387.12 82.008 386.032 81.656 384.56 81.656H370.64L365.264 107H352.688L366.896 39.8H390.512C393.648 39.8 396.4 40.248 398.768 41.144C401.2 41.976 403.216 43.128 404.816 44.6C406.48 46.008 407.696 47.704 408.464 49.688C409.296 51.672 409.712 53.752 409.712 55.928C409.712 60.6 408.624 64.408 406.448 67.352C404.336 70.232 401.072 72.408 396.656 73.88V75.608C398.512 75.8 399.92 76.472 400.88 77.624C401.904 78.712 402.416 80.12 402.416 81.848C402.416 82.488 402.352 83.128 402.224 83.768L397.232 107ZM373.232 69.56H384.752C388.144 69.56 390.928 68.664 393.104 66.872C395.28 65.08 396.368 62.648 396.368 59.576C396.368 57.144 395.696 55.256 394.352 53.912C393.072 52.568 391.088 51.896 388.4 51.896H376.976L373.232 69.56ZM448.717 92.6H426.541L420.397 107H406.861L436.429 39.8H459.853L461.485 107H448.909L448.717 92.6ZM431.629 80.504H448.525L448.045 46.136H446.317L431.629 80.504ZM488.202 81.656L482.826 107H470.25L484.458 39.8H508.458C511.274 39.8 513.802 40.248 516.042 41.144C518.346 42.04 520.298 43.288 521.898 44.888C523.498 46.488 524.714 48.376 525.546 50.552C526.442 52.728 526.89 55.096 526.89 57.656C526.89 61.24 526.282 64.504 525.066 67.448C523.85 70.392 522.122 72.92 519.882 75.032C517.642 77.144 514.954 78.776 511.818 79.928C508.682 81.08 505.194 81.656 501.354 81.656H488.202ZM490.794 69.56H502.506C505.77 69.56 508.49 68.6 510.666 66.68C512.842 64.76 513.93 62.264 513.93 59.192C513.93 56.824 513.162 55.032 511.626 53.816C510.154 52.536 508.202 51.896 505.77 51.896H494.538L490.794 69.56ZM543.239 39.8H555.911L550.055 67.256H569.255L575.111 39.8H587.783L573.479 107H560.807L566.663 79.352H547.463L541.607 107H529.031L543.239 39.8ZM589.541 105.848L603.557 39.8H643.397V51.896H613.637L610.373 67.256H636.389V79.352H607.781L604.517 94.904H632.837V107H589.541V105.848ZM707.103 105.848L721.119 39.8H760.959V51.896H731.199L727.935 67.256H753.951V79.352H725.343L722.079 94.904H750.399V107H707.103V105.848ZM769.916 39.8H782.78L784.988 100.664H786.716L812.54 39.8H825.788V40.952L796.796 107H773.18L769.916 39.8ZM824.666 105.848L838.682 39.8H878.522V51.896H848.762L845.498 67.256H871.514V79.352H842.906L839.642 94.904H867.962V107H824.666V105.848ZM914.359 100.664H916.087L929.047 39.8H941.143L926.839 107H903.223L907.735 46.136H906.007L893.047 107H881.047L895.255 39.8H918.871L914.359 100.664ZM950.1 39.8H998.484V51.896H980.628L968.916 107H956.244L967.956 51.896H950.1V39.8Z"/>
</mask>
<path d="M17.952 81.656V78.656H15.5216L15.0173 81.0335L17.952 81.656ZM12.576 107V110H15.0064L15.5107 107.623L12.576 107ZM0 107L-2.93511 106.379L-3.70061 110H0V107ZM14.208 39.8V36.8H11.776L11.2729 39.1794L14.208 39.8ZM45.792 41.144L44.6778 43.9294L44.6912 43.9348L44.7047 43.94L45.792 41.144ZM55.296 50.552L52.4938 51.6234L52.5075 51.659L52.522 51.6942L55.296 50.552ZM49.632 75.032L51.69 77.2148L49.632 75.032ZM41.568 79.928L42.6025 82.744L41.568 79.928ZM20.544 69.56L17.6092 68.938L16.8415 72.56H20.544V69.56ZM40.416 66.68L42.4009 68.9295L40.416 66.68ZM41.376 53.816L39.4075 56.0798L39.4597 56.1252L39.5139 56.1681L41.376 53.816ZM24.288 51.896V48.896H21.8572L21.3532 51.2739L24.288 51.896ZM15.0173 81.0335L9.6413 106.377L15.5107 107.623L20.8867 82.2785L15.0173 81.0335ZM12.576 104H0V110H12.576V104ZM2.93511 107.621L17.1431 40.4206L11.2729 39.1794L-2.93511 106.379L2.93511 107.621ZM14.208 42.8H38.208V36.8H14.208V42.8ZM38.208 42.8C40.7052 42.8 42.8462 43.1968 44.6778 43.9294L46.9062 38.3586C44.2578 37.2992 41.3428 36.8 38.208 36.8V42.8ZM44.7047 43.94C46.6572 44.6993 48.2471 45.7297 49.5267 47.0093L53.7693 42.7667C51.8489 40.8462 49.5349 39.3807 46.8793 38.348L44.7047 43.94ZM49.5267 47.0093C50.8195 48.3022 51.8079 49.8294 52.4938 51.6234L58.0982 49.4806C57.1201 46.9226 55.6765 44.6738 53.7693 42.7667L49.5267 47.0093ZM52.522 51.6942C53.2561 53.4772 53.64 55.4532 53.64 57.656H59.64C59.64 54.7388 59.1279 51.9788 58.07 49.4098L52.522 51.6942ZM53.64 57.656C53.64 60.8961 53.0915 63.7647 52.0432 66.3027L57.5888 68.5933C58.9725 65.2433 59.64 61.5839 59.64 57.656H53.64ZM52.0432 66.3027C50.9836 68.8681 49.4942 71.0387 47.574 72.8492L51.69 77.2148C54.2498 74.8013 56.2164 71.9159 57.5888 68.5933L52.0432 66.3027ZM47.574 72.8492C45.6532 74.6602 43.3218 76.0877 40.5336 77.112L42.6025 82.744C46.0862 81.4643 49.1308 79.6278 51.69 77.2148L47.574 72.8492ZM40.5336 77.112C37.7744 78.1256 34.643 78.656 31.104 78.656V84.656C35.245 84.656 39.0896 84.0344 42.6025 82.744L40.5336 77.112ZM31.104 78.656H17.952V84.656H31.104V78.656ZM20.544 72.56H32.256V66.56H20.544V72.56ZM32.256 72.56C36.1533 72.56 39.6077 71.3941 42.4009 68.9295L38.4311 64.4305C36.8723 65.8059 34.8867 66.56 32.256 66.56V72.56ZM42.4009 68.9295C45.264 66.4033 46.68 63.0676 46.68 59.192H40.68C40.68 61.4604 39.9201 63.1167 38.4311 64.4305L42.4009 68.9295ZM46.68 59.192C46.68 56.1198 45.6445 53.3689 43.2381 51.4639L39.5139 56.1681C40.1795 56.6951 40.68 57.5282 40.68 59.192H46.68ZM43.3445 51.5522C41.2016 49.6888 38.4906 48.896 35.52 48.896V54.896C37.4134 54.896 38.6064 55.3832 39.4075 56.0798L43.3445 51.5522ZM35.52 48.896H24.288V54.896H35.52V48.896ZM21.3532 51.2739L17.6092 68.938L23.4788 70.182L27.2228 52.5181L21.3532 51.2739ZM72.9893 39.8V36.8H70.5572L70.0541 39.1794L72.9893 39.8ZM85.6612 39.8L88.5953 40.4258L89.3686 36.8H85.6612V39.8ZM79.8053 67.256L76.8712 66.6302L76.0979 70.256H79.8053V67.256ZM99.0052 67.256V70.256H101.433L101.939 67.8818L99.0052 67.256ZM104.861 39.8V36.8H102.434L101.927 39.1742L104.861 39.8ZM117.533 39.8L120.468 40.4246L121.239 36.8H117.533V39.8ZM103.229 107V110H105.658L106.164 107.625L103.229 107ZM90.5573 107L87.6224 106.378L86.8553 110H90.5573V107ZM96.4133 79.352L99.3481 79.9736L100.115 76.352H96.4133V79.352ZM77.2132 79.352V76.352H74.7821L74.2784 78.7304L77.2132 79.352ZM71.3573 107V110H73.7884L74.2921 107.622L71.3573 107ZM58.7812 107L55.8461 106.379L55.0806 110H58.7812V107ZM72.9893 42.8H85.6612V36.8H72.9893V42.8ZM82.7272 39.1742L76.8712 66.6302L82.7393 67.8818L88.5953 40.4258L82.7272 39.1742ZM79.8053 70.256H99.0052V64.256H79.8053V70.256ZM101.939 67.8818L107.795 40.4258L101.927 39.1742L96.0712 66.6302L101.939 67.8818ZM104.861 42.8H117.533V36.8H104.861V42.8ZM114.599 39.1754L100.295 106.375L106.164 107.625L120.468 40.4246L114.599 39.1754ZM103.229 104H90.5573V110H103.229V104ZM93.4921 107.622L99.3481 79.9736L93.4784 78.7304L87.6224 106.378L93.4921 107.622ZM96.4133 76.352H77.2132V82.352H96.4133V76.352ZM74.2784 78.7304L68.4224 106.378L74.2921 107.622L80.1481 79.9736L74.2784 78.7304ZM71.3573 104H58.7812V110H71.3573V104ZM61.7164 107.621L75.9244 40.4206L70.0541 39.1794L55.8461 106.379L61.7164 107.621ZM123.802 65.912L126.738 66.5329L126.739 66.527L123.802 65.912ZM133.691 45.08L131.63 42.8998L131.622 42.9069L131.615 42.914L133.691 45.08ZM161.915 40.088L160.765 42.8592L160.795 42.8713L160.824 42.8827L161.915 40.088ZM168.538 44.504L166.345 46.551L166.363 46.5695L166.38 46.5878L168.538 44.504ZM172.57 51.128L169.739 52.119L169.75 52.1503L169.762 52.1814L172.57 51.128ZM173.818 62.648L170.839 62.2975L170.829 62.3844L170.824 62.4718L173.818 62.648ZM173.339 65.912L170.418 65.2249L170.41 65.2579L170.403 65.2911L173.339 65.912ZM170.171 80.888L167.235 80.2671L167.234 80.273L170.171 80.888ZM160.187 101.72L158.126 99.5398L158.118 99.5469L158.111 99.554L160.187 101.72ZM132.059 106.808L130.909 109.579L130.939 109.591L130.968 109.603L132.059 106.808ZM125.435 102.392L123.241 104.439L123.259 104.458L123.276 104.476L125.435 102.392ZM121.307 95.768L118.475 96.759L118.49 96.8022L118.506 96.8449L121.307 95.768ZM120.059 84.152L117.079 83.8015L117.069 83.8884L117.064 83.9758L120.059 84.152ZM120.634 80.888L123.555 81.5751L123.563 81.5421L123.57 81.5089L120.634 80.888ZM147.995 95.672L149.252 98.3959L149.294 98.3762L149.336 98.3553L147.995 95.672ZM152.314 92.408L150.142 90.339L150.116 90.3668L150.09 90.3953L152.314 92.408ZM155.387 87.608L152.649 86.3808L152.631 86.4206L152.614 86.4609L155.387 87.608ZM157.307 81.656L154.374 81.0251L154.372 81.0335L157.307 81.656ZM160.859 65.144L163.791 65.7749L163.8 65.736L163.807 65.6969L160.859 65.144ZM161.243 62.552L158.283 62.0588L158.265 62.1691L158.255 62.2804L161.243 62.552ZM158.842 52.76L156.609 54.7626L156.645 54.8032L156.683 54.8424L158.842 52.76ZM145.979 51.224L147.236 53.9479L147.278 53.9282L147.32 53.9073L145.979 51.224ZM141.562 54.392L139.39 52.323L139.364 52.3508L139.338 52.3793L141.562 54.392ZM138.49 59.192L135.753 57.9648L135.735 58.0046L135.718 58.0449L138.49 59.192ZM136.667 65.144L139.599 65.7749L139.601 65.7665L136.667 65.144ZM133.115 81.656L136.043 82.3068L136.045 82.2969L136.047 82.2869L133.115 81.656ZM135.035 94.136L132.801 96.1386L132.837 96.1792L132.875 96.2184L135.035 94.136ZM126.739 66.527C128.659 57.3606 131.767 51.0788 135.766 47.246L131.615 42.914C126.398 47.9132 122.914 55.5194 120.866 65.297L126.739 66.527ZM135.751 47.2602C139.73 43.4998 145.318 41.456 152.891 41.456V35.456C144.207 35.456 136.995 37.8282 131.63 42.8998L135.751 47.2602ZM152.891 41.456C155.963 41.456 158.569 41.9486 160.765 42.8592L163.064 37.3168C160.012 36.0514 156.602 35.456 152.891 35.456V41.456ZM160.824 42.8827C163.06 43.7553 164.882 44.9832 166.345 46.551L170.732 42.457C168.611 40.1848 166.017 38.4687 163.005 37.2933L160.824 42.8827ZM166.38 46.5878C167.856 48.1165 168.978 49.9462 169.739 52.119L175.402 50.1369C174.371 47.1898 172.805 44.6035 170.697 42.4202L166.38 46.5878ZM169.762 52.1814C170.586 54.3795 171.01 56.772 171.01 59.384H177.01C177.01 56.108 176.475 52.9965 175.379 50.0746L169.762 52.1814ZM171.01 59.384C171.01 60.354 170.953 61.325 170.839 62.2975L176.798 62.9985C176.94 61.795 177.01 60.5899 177.01 59.384H171.01ZM170.824 62.4718C170.77 63.3834 170.636 64.3005 170.418 65.2249L176.259 66.5991C176.553 65.3475 176.739 64.0886 176.813 62.8242L170.824 62.4718ZM170.403 65.2911L167.235 80.2671L173.106 81.5089L176.274 66.5329L170.403 65.2911ZM167.234 80.273C165.316 89.4309 162.18 95.7073 158.126 99.5398L162.247 103.9C167.537 98.9007 171.057 91.2891 173.107 81.503L167.234 80.273ZM158.111 99.554C154.203 103.299 148.658 105.344 141.083 105.344V111.344C149.763 111.344 156.954 108.973 162.262 103.886L158.111 99.554ZM141.083 105.344C137.989 105.344 135.362 104.877 133.149 104.013L130.968 109.603C134.003 110.787 137.392 111.344 141.083 111.344V105.344ZM133.208 104.037C130.925 103.09 129.071 101.84 127.593 100.308L123.276 104.476C125.382 106.656 127.944 108.35 130.909 109.579L133.208 104.037ZM127.628 100.345C126.103 98.7117 124.931 96.8345 124.107 94.6911L118.506 96.8449C119.602 99.6935 121.182 102.232 123.241 104.439L127.628 100.345ZM124.138 94.7769C123.365 92.5683 122.963 90.1231 122.963 87.416H116.963C116.963 90.7249 117.456 93.8477 118.475 96.759L124.138 94.7769ZM122.963 87.416C122.963 86.3869 122.993 85.3576 123.053 84.3282L117.064 83.9758C116.996 85.1224 116.963 86.2691 116.963 87.416H122.963ZM123.038 84.5025C123.152 83.53 123.324 82.5544 123.555 81.5751L117.714 80.2009C117.433 81.3976 117.221 82.598 117.079 83.8015L123.038 84.5025ZM123.57 81.5089L126.738 66.5329L120.867 65.2911L117.699 80.2671L123.57 81.5089ZM142.234 99.824C144.764 99.824 147.127 99.3767 149.252 98.3959L146.737 92.9481C145.534 93.5033 144.057 93.824 142.234 93.824V99.824ZM149.336 98.3553C151.325 97.3611 153.066 96.0485 154.539 94.4207L150.09 90.3953C149.131 91.4555 147.992 92.3189 146.653 92.9887L149.336 98.3553ZM154.487 94.477C156.042 92.844 157.261 90.9245 158.159 88.7551L152.614 86.4609C151.976 88.0035 151.147 89.284 150.142 90.339L154.487 94.477ZM158.124 88.8352C159.048 86.7737 159.752 84.5858 160.241 82.2785L154.372 81.0335C153.965 82.9502 153.389 84.7303 152.649 86.3808L158.124 88.8352ZM160.239 82.2869L163.791 65.7749L157.926 64.5131L154.374 81.0251L160.239 82.2869ZM163.807 65.6969C164.009 64.6189 164.155 63.6546 164.23 62.8236L158.255 62.2804C158.202 62.8574 158.092 63.6211 157.91 64.5911L163.807 65.6969ZM164.202 63.0452C164.354 62.1311 164.435 61.2295 164.435 60.344H158.435C158.435 60.8665 158.387 61.4369 158.283 62.0588L164.202 63.0452ZM164.435 60.344C164.435 56.553 163.421 53.1859 161.002 50.6776L156.683 54.8424C157.72 55.9181 158.435 57.607 158.435 60.344H164.435ZM161.076 50.7574C158.714 48.1231 155.449 46.976 151.738 46.976V52.976C154.172 52.976 155.643 53.6849 156.609 54.7626L161.076 50.7574ZM151.738 46.976C149.176 46.976 146.783 47.4678 144.637 48.5407L147.32 53.9073C148.502 53.3162 149.949 52.976 151.738 52.976V46.976ZM144.721 48.5001C142.709 49.4288 140.928 50.7085 139.39 52.323L143.735 56.461C144.757 55.3875 145.92 54.5552 147.236 53.9479L144.721 48.5001ZM139.338 52.3793C137.887 53.9832 136.698 55.8564 135.753 57.9648L141.228 60.4192C141.947 58.8156 142.806 57.4888 143.787 56.4047L139.338 52.3793ZM135.718 58.0449C134.875 60.0825 134.215 62.2433 133.732 64.5215L139.601 65.7665C140.014 63.8207 140.57 62.0135 141.263 60.3391L135.718 58.0449ZM133.734 64.5131L130.182 81.0251L136.047 82.2869L139.599 65.7749L133.734 64.5131ZM130.186 81.0052C129.764 82.9054 129.538 84.7264 129.538 86.456H135.538C135.538 85.2416 135.697 83.8626 136.043 82.3068L130.186 81.0052ZM129.538 86.456C129.538 90.2252 130.507 93.5799 132.801 96.1386L137.268 92.1334C136.234 90.98 135.538 89.2148 135.538 86.456H129.538ZM132.875 96.2184C135.296 98.7286 138.551 99.824 142.234 99.824V93.824C139.774 93.824 138.229 93.1274 137.194 92.0536L132.875 96.2184ZM185.944 39.8V36.8H182.944V39.8H185.944ZM234.328 39.8H237.328V36.8H234.328V39.8ZM234.328 51.896V54.896H237.328V51.896H234.328ZM216.472 51.896V48.896H214.042L213.537 51.2723L216.472 51.896ZM204.76 107V110H207.189L207.694 107.624L204.76 107ZM192.088 107L189.153 106.376L188.383 110H192.088V107ZM203.8 51.896L206.734 52.5197L207.504 48.896H203.8V51.896ZM185.944 51.896H182.944V54.896H185.944V51.896ZM185.944 42.8H234.328V36.8H185.944V42.8ZM231.328 39.8V51.896H237.328V39.8H231.328ZM234.328 48.896H216.472V54.896H234.328V48.896ZM213.537 51.2723L201.825 106.376L207.694 107.624L219.406 52.5197L213.537 51.2723ZM204.76 104H192.088V110H204.76V104ZM195.022 107.624L206.734 52.5197L200.865 51.2723L189.153 106.376L195.022 107.624ZM203.8 48.896H185.944V54.896H203.8V48.896ZM188.944 51.896V39.8H182.944V51.896H188.944ZM241.365 65.912L244.3 66.5329L244.301 66.527L241.365 65.912ZM251.253 45.08L249.192 42.8998L249.185 42.9069L249.177 42.914L251.253 45.08ZM279.477 40.088L278.328 42.8592L278.357 42.8713L278.386 42.8827L279.477 40.088ZM286.101 44.504L283.908 46.551L283.925 46.5695L283.943 46.5878L286.101 44.504ZM290.133 51.128L287.301 52.119L287.312 52.1503L287.324 52.1814L290.133 51.128ZM291.381 62.648L288.402 62.2975L288.391 62.3844L288.386 62.4718L291.381 62.648ZM290.901 65.912L287.981 65.2249L287.973 65.2579L287.966 65.2911L290.901 65.912ZM287.733 80.888L284.798 80.2671L284.797 80.273L287.733 80.888ZM277.749 101.72L275.688 99.5398L275.681 99.5469L275.673 99.554L277.749 101.72ZM249.621 106.808L248.472 109.579L248.501 109.591L248.53 109.603L249.621 106.808ZM242.997 102.392L240.804 104.439L240.821 104.458L240.839 104.476L242.997 102.392ZM238.869 95.768L236.037 96.759L236.053 96.8022L236.069 96.8449L238.869 95.768ZM237.621 84.152L234.642 83.8015L234.631 83.8884L234.626 83.9758L237.621 84.152ZM238.197 80.888L241.117 81.5751L241.125 81.5421L241.132 81.5089L238.197 80.888ZM265.557 95.672L266.814 98.3959L266.857 98.3762L266.899 98.3553L265.557 95.672ZM269.877 92.408L267.705 90.339L267.678 90.3668L267.652 90.3953L269.877 92.408ZM272.949 87.608L270.211 86.3808L270.194 86.4206L270.177 86.4609L272.949 87.608ZM274.869 81.656L271.936 81.0251L271.934 81.0335L274.869 81.656ZM278.421 65.144L281.354 65.7749L281.362 65.736L281.37 65.6969L278.421 65.144ZM278.805 62.552L275.846 62.0588L275.827 62.1691L275.817 62.2804L278.805 62.552ZM276.405 52.76L274.171 54.7626L274.208 54.8032L274.245 54.8424L276.405 52.76ZM263.541 51.224L264.798 53.9479L264.841 53.9282L264.883 53.9073L263.541 51.224ZM259.125 54.392L256.953 52.323L256.926 52.3508L256.9 52.3793L259.125 54.392ZM256.053 59.192L253.315 57.9648L253.298 58.0046L253.281 58.0449L256.053 59.192ZM254.229 65.144L257.162 65.7749L257.164 65.7665L254.229 65.144ZM250.677 81.656L253.606 82.3068L253.608 82.2969L253.61 82.2869L250.677 81.656ZM252.597 94.136L250.363 96.1386L250.4 96.1792L250.437 96.2184L252.597 94.136ZM244.301 66.527C246.221 57.3606 249.329 51.0788 253.329 47.246L249.177 42.914C243.961 47.9132 240.477 55.5194 238.429 65.297L244.301 66.527ZM253.314 47.2602C257.292 43.4998 262.88 41.456 270.453 41.456V35.456C261.77 35.456 254.558 37.8282 249.192 42.8998L253.314 47.2602ZM270.453 41.456C273.526 41.456 276.132 41.9486 278.328 42.8592L280.626 37.3168C277.574 36.0514 274.164 35.456 270.453 35.456V41.456ZM278.386 42.8827C280.622 43.7553 282.445 44.9832 283.908 46.551L288.294 42.457C286.173 40.1848 283.58 38.4687 280.568 37.2933L278.386 42.8827ZM283.943 46.5878C285.419 48.1165 286.541 49.9462 287.301 52.119L292.965 50.1369C291.933 47.1898 290.367 44.6035 288.259 42.4202L283.943 46.5878ZM287.324 52.1814C288.148 54.3795 288.573 56.772 288.573 59.384H294.573C294.573 56.108 294.038 52.9965 292.942 50.0746L287.324 52.1814ZM288.573 59.384C288.573 60.354 288.516 61.325 288.402 62.2975L294.36 62.9985C294.502 61.795 294.573 60.5899 294.573 59.384H288.573ZM288.386 62.4718C288.333 63.3834 288.198 64.3005 287.981 65.2249L293.821 66.5991C294.116 65.3475 294.301 64.0886 294.376 62.8242L288.386 62.4718ZM287.966 65.2911L284.798 80.2671L290.668 81.5089L293.836 66.5329L287.966 65.2911ZM284.797 80.273C282.879 89.4309 279.743 95.7073 275.688 99.5398L279.81 103.9C285.099 98.9007 288.62 91.2891 290.669 81.503L284.797 80.273ZM275.673 99.554C271.765 103.299 266.22 105.344 258.645 105.344V111.344C267.326 111.344 274.517 108.973 279.825 103.886L275.673 99.554ZM258.645 105.344C255.552 105.344 252.925 104.877 250.712 104.013L248.53 109.603C251.565 110.787 254.954 111.344 258.645 111.344V105.344ZM250.77 104.037C248.487 103.09 246.634 101.84 245.155 100.308L240.839 104.476C242.944 106.656 245.507 108.35 248.472 109.579L250.77 104.037ZM245.19 100.345C243.666 98.7117 242.493 96.8345 241.669 94.6911L236.069 96.8449C237.165 99.6935 238.744 102.232 240.804 104.439L245.19 100.345ZM241.701 94.7769C240.928 92.5683 240.525 90.1231 240.525 87.416H234.525C234.525 90.7249 235.018 93.8477 236.037 96.759L241.701 94.7769ZM240.525 87.416C240.525 86.3869 240.555 85.3576 240.616 84.3282L234.626 83.9758C234.559 85.1224 234.525 86.2691 234.525 87.416H240.525ZM240.6 84.5025C240.715 83.53 240.887 82.5544 241.117 81.5751L235.277 80.2009C234.995 81.3976 234.783 82.598 234.642 83.8015L240.6 84.5025ZM241.132 81.5089L244.3 66.5329L238.43 65.2911L235.262 80.2671L241.132 81.5089ZM259.797 99.824C262.327 99.824 264.689 99.3767 266.814 98.3959L264.3 92.9481C263.097 93.5033 261.619 93.824 259.797 93.824V99.824ZM266.899 98.3553C268.887 97.3611 270.629 96.0485 272.102 94.4207L267.652 90.3953C266.693 91.4555 265.555 92.3189 264.215 92.9887L266.899 98.3553ZM272.049 94.477C273.605 92.844 274.823 90.9245 275.721 88.7551L270.177 86.4609C269.539 88.0035 268.709 89.284 267.705 90.339L272.049 94.477ZM275.687 88.8352C276.611 86.7737 277.314 84.5858 277.804 82.2785L271.934 81.0335C271.528 82.9502 270.951 84.7303 270.211 86.3808L275.687 88.8352ZM277.802 82.2869L281.354 65.7749L275.488 64.5131L271.936 81.0251L277.802 82.2869ZM281.37 65.6969C281.572 64.6189 281.717 63.6546 281.793 62.8236L275.817 62.2804C275.765 62.8574 275.654 63.6211 275.472 64.5911L281.37 65.6969ZM281.764 63.0452C281.917 62.1311 281.997 61.2295 281.997 60.344H275.997C275.997 60.8665 275.949 61.4369 275.846 62.0588L281.764 63.0452ZM281.997 60.344C281.997 56.553 280.983 53.1859 278.565 50.6776L274.245 54.8424C275.283 55.9181 275.997 57.607 275.997 60.344H281.997ZM278.639 50.7574C276.277 48.1231 273.011 46.976 269.301 46.976V52.976C271.735 52.976 273.205 53.6849 274.171 54.7626L278.639 50.7574ZM269.301 46.976C266.738 46.976 264.345 47.4678 262.199 48.5407L264.883 53.9073C266.065 53.3162 267.512 52.976 269.301 52.976V46.976ZM262.284 48.5001C260.272 49.4288 258.49 50.7085 256.953 52.323L261.297 56.461C262.32 55.3875 263.482 54.5552 264.798 53.9479L262.284 48.5001ZM256.9 52.3793C255.449 53.9832 254.261 55.8564 253.315 57.9648L258.791 60.4192C259.509 58.8156 260.369 57.4888 261.35 56.4047L256.9 52.3793ZM253.281 58.0449C252.438 60.0825 251.778 62.2433 251.294 64.5215L257.164 65.7665C257.576 63.8207 258.132 62.0135 258.825 60.3391L253.281 58.0449ZM251.296 64.5131L247.744 81.0251L253.61 82.2869L257.162 65.7749L251.296 64.5131ZM247.748 81.0052C247.326 82.9054 247.101 84.7264 247.101 86.456H253.101C253.101 85.2416 253.26 83.8626 253.606 82.3068L247.748 81.0052ZM247.101 86.456C247.101 90.2252 248.069 93.5799 250.363 96.1386L254.831 92.1334C253.797 90.98 253.101 89.2148 253.101 86.456H247.101ZM250.437 96.2184C252.858 98.7286 256.114 99.824 259.797 99.824V93.824C257.336 93.824 255.792 93.1274 254.757 92.0536L250.437 96.2184ZM318.098 73.016V70.016H315.098V73.016H318.098ZM347.762 73.016H350.762V70.016H347.762V73.016ZM347.762 74.168L350.698 74.786L350.762 74.4804V74.168H347.762ZM340.85 107V110H343.284L343.786 107.618L340.85 107ZM329.33 107L326.399 106.361L325.606 110H329.33V107ZM330.962 99.512L333.893 100.151L334.687 96.512H330.962V99.512ZM329.234 99.512V96.512H327.401L326.565 98.1431L329.234 99.512ZM323.474 105.848L325.109 108.363L325.131 108.349L325.153 108.335L323.474 105.848ZM306.194 107.096L307.294 104.305L307.257 104.29L307.219 104.277L306.194 107.096ZM300.722 103.544L298.558 105.622L300.722 103.544ZM297.074 97.688L294.244 98.6825L294.26 98.7292L294.278 98.7753L297.074 97.688ZM296.786 81.272L293.852 80.6459L293.852 80.6477L296.786 81.272ZM300.146 65.528L297.213 64.9008L297.212 64.9019L300.146 65.528ZM310.706 45.08L312.663 47.3537L312.666 47.3517L310.706 45.08ZM339.122 39.992L337.984 42.7675L338.026 42.7849L338.069 42.801L339.122 39.992ZM345.554 44.024L347.676 41.9027L345.554 44.024ZM349.49 50.072L346.694 51.1593L346.713 51.2069L346.733 51.2537L349.49 50.072ZM350.738 60.152L353.712 60.5485L353.714 60.5363L353.715 60.5241L350.738 60.152ZM350.258 62.84L353.169 63.5676L353.175 63.5411L353.181 63.5146L350.258 62.84ZM349.97 63.992V66.992H352.313L352.881 64.7196L349.97 63.992ZM337.298 63.992L334.388 63.2644L333.456 66.992H337.298V63.992ZM337.586 62.84L334.676 62.1124V62.1124L337.586 62.84ZM337.97 60.824L334.989 60.4927L337.97 60.824ZM335.57 52.856L333.535 55.0604L333.559 55.0819L333.583 55.103L335.57 52.856ZM323.186 51.416L322.17 48.5933V48.5933L323.186 51.416ZM318.674 54.2L320.687 56.4246L320.692 56.4198L318.674 54.2ZM315.122 59.096L317.788 60.4719L317.797 60.4548L317.806 60.4376L315.122 59.096ZM312.626 66.488L309.695 65.8507L309.694 65.854L312.626 66.488ZM309.554 80.696L312.483 81.3468L312.485 81.3384L312.486 81.33L309.554 80.696ZM309.074 83.576L306.085 83.3269L309.074 83.576ZM311.666 93.656L313.749 91.4965L311.666 93.656ZM328.178 93.272L330.105 95.5716L330.111 95.5667L328.178 93.272ZM332.882 85.112L335.82 85.7216L336.569 82.112H332.882V85.112ZM318.098 85.112H315.098V88.112H318.098V85.112ZM318.098 76.016H347.762V70.016H318.098V76.016ZM344.762 73.016V74.168H350.762V73.016H344.762ZM344.827 73.55L337.915 106.382L343.786 107.618L350.698 74.786L344.827 73.55ZM340.85 104H329.33V110H340.85V104ZM332.261 107.639L333.893 100.151L328.031 98.8732L326.399 106.361L332.261 107.639ZM330.962 96.512H329.234V102.512H330.962V96.512ZM326.565 98.1431C325.538 100.145 323.98 101.887 321.796 103.361L325.153 108.335C328.089 106.353 330.37 103.871 331.904 100.881L326.565 98.1431ZM321.839 103.333C319.932 104.573 317.113 105.344 313.106 105.344V111.344C317.803 111.344 321.897 110.451 325.109 108.363L321.839 103.333ZM313.106 105.344C310.949 105.344 309.022 104.986 307.294 104.305L305.095 109.887C307.59 110.87 310.271 111.344 313.106 111.344V105.344ZM307.219 104.277C305.533 103.663 304.1 102.731 302.886 101.466L298.558 105.622C300.416 107.557 302.632 108.993 305.169 109.915L307.219 104.277ZM302.886 101.466C301.654 100.183 300.639 98.5784 299.87 96.6007L294.278 98.7753C295.301 101.406 296.719 103.705 298.558 105.622L302.886 101.466ZM299.905 96.6935C299.207 94.7075 298.826 92.3345 298.826 89.528H292.826C292.826 92.8655 293.278 95.9325 294.244 98.6825L299.905 96.6935ZM298.826 89.528C298.826 87.2835 299.115 84.7444 299.721 81.8963L293.852 80.6477C293.178 83.8156 292.826 86.7805 292.826 89.528H298.826ZM299.72 81.8981L303.08 66.1541L297.212 64.9019L293.852 80.6459L299.72 81.8981ZM303.08 66.1552C304.983 57.253 308.275 51.1309 312.663 47.3537L308.749 42.8063C303.025 47.7331 299.277 55.243 297.213 64.9008L303.08 66.1552ZM312.666 47.3517C317.136 43.4962 323.017 41.456 330.578 41.456V35.456C321.883 35.456 314.517 37.8318 308.747 42.8083L312.666 47.3517ZM330.578 41.456C333.459 41.456 335.91 41.9166 337.984 42.7675L340.261 37.2165C337.343 36.0194 334.097 35.456 330.578 35.456V41.456ZM338.069 42.801C340.276 43.6286 342.042 44.7543 343.433 46.1453L347.676 41.9027C345.611 39.8377 343.089 38.2754 340.176 37.183L338.069 42.801ZM343.433 46.1453C344.863 47.5757 345.947 49.2384 346.694 51.1593L352.286 48.9846C351.241 46.2976 349.701 43.9283 347.676 41.9027L343.433 46.1453ZM346.733 51.2537C347.525 53.1016 347.93 55.0974 347.93 57.272H353.93C353.93 54.3266 353.376 51.5224 352.248 48.8902L346.733 51.2537ZM347.93 57.272C347.93 58.0266 347.876 58.8612 347.761 59.7799L353.715 60.5241C353.856 59.3947 353.93 58.3094 353.93 57.272H347.93ZM347.765 59.7555C347.647 60.6342 347.503 61.4365 347.335 62.1654L353.181 63.5146C353.397 62.5795 353.573 61.5898 353.712 60.5485L347.765 59.7555ZM347.348 62.1124L347.06 63.2644L352.881 64.7196L353.169 63.5676L347.348 62.1124ZM349.97 60.992H337.298V66.992H349.97V60.992ZM340.209 64.7196L340.497 63.5676L334.676 62.1124L334.388 63.2644L340.209 64.7196ZM340.497 63.5676C340.71 62.7128 340.869 61.9031 340.952 61.1553L334.989 60.4927C334.944 60.8969 334.846 61.4312 334.676 62.1124L340.497 63.5676ZM340.952 61.1553C341.028 60.47 341.066 59.7834 341.066 59.096H335.066C335.066 59.5606 335.04 60.026 334.989 60.4927L340.952 61.1553ZM341.066 59.096C341.066 55.7451 339.999 52.7688 337.558 50.609L333.583 55.103C334.469 55.8872 335.066 57.0709 335.066 59.096H341.066ZM337.605 50.6516C335.194 48.4261 331.917 47.552 328.274 47.552V53.552C331.031 53.552 332.618 54.2139 333.535 55.0604L337.605 50.6516ZM328.274 47.552C326.155 47.552 324.113 47.8938 322.17 48.5933L324.202 54.2387C325.459 53.7862 326.81 53.552 328.274 53.552V47.552ZM322.17 48.5933C320.158 49.3176 318.321 50.4669 316.656 51.9802L320.692 56.4198C321.844 55.3731 323.014 54.6664 324.202 54.2387L322.17 48.5933ZM316.661 51.9754C314.979 53.4977 313.588 55.4572 312.439 57.7544L317.806 60.4376C318.705 58.6388 319.682 57.3343 320.687 56.4246L316.661 51.9754ZM312.456 57.7201C311.278 60.0027 310.372 62.733 309.695 65.8507L315.558 67.1253C316.16 64.355 316.918 62.1573 317.788 60.4719L312.456 57.7201ZM309.694 65.854L306.622 80.062L312.486 81.33L315.559 67.122L309.694 65.854ZM306.626 80.0452C306.354 81.268 306.164 82.3728 306.085 83.3269L312.064 83.8251C312.112 83.2432 312.243 82.428 312.483 81.3468L306.626 80.0452ZM306.085 83.3269C306.014 84.1774 305.978 85.0286 305.978 85.88H311.978C311.978 85.1954 312.007 84.5106 312.064 83.8251L306.085 83.3269ZM305.978 85.88C305.978 89.8267 307.007 93.3311 309.584 95.8155L313.749 91.4965C312.741 90.5249 311.978 88.8453 311.978 85.88H305.978ZM309.584 95.8155C312.059 98.2026 315.305 99.248 318.962 99.248V93.248C316.475 93.248 314.857 92.5654 313.749 91.4965L309.584 95.8155ZM318.962 99.248C323.28 99.248 327.084 98.1024 330.105 95.5716L326.252 90.9724C324.536 92.4096 322.196 93.248 318.962 93.248V99.248ZM330.111 95.5667C333.104 93.046 334.992 89.7093 335.82 85.7216L329.945 84.5023C329.364 87.2987 328.116 89.402 326.246 90.9773L330.111 95.5667ZM332.882 82.112H318.098V88.112H332.882V82.112ZM321.098 85.112V73.016H315.098V85.112H321.098ZM397.232 107V110H399.655L400.165 107.63L397.232 107ZM384.367 107L381.434 106.371L380.657 110H384.367V107ZM388.688 86.84L391.621 87.4686L391.625 87.4485L391.629 87.4283L388.688 86.84ZM387.824 82.712L385.702 84.8333L385.753 84.8838L385.805 84.9318L387.824 82.712ZM370.639 81.656V78.656H368.209L367.705 81.0335L370.639 81.656ZM365.263 107V110H367.694L368.198 107.623L365.263 107ZM352.688 107L349.752 106.379L348.987 110H352.688V107ZM366.896 39.8V36.8H364.463L363.96 39.1794L366.896 39.8ZM398.768 41.144L397.706 43.9499L397.751 43.9669L397.796 43.9825L398.768 41.144ZM404.815 44.6L402.784 46.8078L402.83 46.8499L402.878 46.8902L404.815 44.6ZM408.464 49.688L405.666 50.771L405.681 50.8098L405.697 50.8482L408.464 49.688ZM406.448 67.352L404.035 65.5688L404.028 65.5779L406.448 67.352ZM396.656 73.88L395.707 71.034L393.656 71.7177V73.88H396.656ZM396.656 75.608H393.656V78.3137L396.347 78.5921L396.656 75.608ZM400.88 77.624L398.575 79.5446L398.633 79.6141L398.695 79.6801L400.88 77.624ZM402.224 83.768L405.157 84.3982L405.161 84.3773L405.165 84.3563L402.224 83.768ZM373.232 69.56L370.297 68.938L369.529 72.56H373.232V69.56ZM393.104 66.872L395.011 69.1878L393.104 66.872ZM394.352 53.912L392.179 55.981L392.204 56.0075L392.23 56.0333L394.352 53.912ZM376.975 51.896V48.896H374.545L374.041 51.2739L376.975 51.896ZM397.232 104H384.367V110H397.232V104ZM387.301 107.629L391.621 87.4686L385.754 86.2114L381.434 106.371L387.301 107.629ZM391.629 87.4283C391.773 86.7088 391.879 85.9753 391.879 85.304H385.879C385.879 85.4007 385.858 85.6912 385.746 86.2517L391.629 87.4283ZM391.879 85.304C391.879 83.5046 391.264 81.785 389.842 80.4922L385.805 84.9318C385.824 84.9484 385.83 84.9571 385.83 84.9579C385.831 84.9585 385.833 84.9615 385.837 84.9719C385.845 84.9899 385.879 85.0845 385.879 85.304H391.879ZM389.945 80.5907C388.458 79.1035 386.449 78.656 384.56 78.656V84.656C385.614 84.656 385.781 84.9125 385.702 84.8333L389.945 80.5907ZM384.56 78.656H370.639V84.656H384.56V78.656ZM367.705 81.0335L362.329 106.377L368.198 107.623L373.574 82.2785L367.705 81.0335ZM365.263 104H352.688V110H365.263V104ZM355.623 107.621L369.831 40.4206L363.96 39.1794L349.752 106.379L355.623 107.621ZM366.896 42.8H390.512V36.8H366.896V42.8ZM390.512 42.8C393.368 42.8 395.747 43.2088 397.706 43.9499L399.829 38.3381C397.052 37.2872 393.927 36.8 390.512 36.8V42.8ZM397.796 43.9825C399.906 44.7041 401.541 45.6637 402.784 46.8078L406.847 42.3922C404.89 40.5923 402.493 39.2479 399.739 38.3055L397.796 43.9825ZM402.878 46.8902C404.168 47.9823 405.084 49.2668 405.666 50.771L411.261 48.605C410.307 46.1412 408.791 44.0337 406.753 42.3098L402.878 46.8902ZM405.697 50.8482C406.373 52.4605 406.712 54.1457 406.712 55.928H412.712C412.712 53.3583 412.218 50.8835 411.23 48.5278L405.697 50.8482ZM406.712 55.928C406.712 60.1365 405.735 63.2681 404.035 65.5688L408.86 69.1352C411.512 65.5479 412.712 61.0635 412.712 55.928H406.712ZM404.028 65.5779C402.381 67.8245 399.711 69.6991 395.707 71.034L397.604 76.726C402.432 75.1169 406.29 72.6395 408.867 69.1261L404.028 65.5779ZM393.656 73.88V75.608H399.656V73.88H393.656ZM396.347 78.5921C397.625 78.7243 398.232 79.1327 398.575 79.5446L403.184 75.7034C401.607 73.8113 399.398 72.8757 396.964 72.6239L396.347 78.5921ZM398.695 79.6801C399.113 80.1247 399.415 80.7559 399.415 81.848H405.415C405.415 79.4841 404.694 77.2993 403.064 75.5679L398.695 79.6801ZM399.415 81.848C399.415 82.2866 399.372 82.7295 399.282 83.1797L405.165 84.3563C405.331 83.5265 405.415 82.6894 405.415 81.848H399.415ZM399.29 83.1378L394.298 106.37L400.165 107.63L405.157 84.3982L399.29 83.1378ZM373.232 72.56H384.751V66.56H373.232V72.56ZM384.751 72.56C388.692 72.56 392.194 71.5074 395.011 69.1878L391.196 64.5562C389.661 65.8206 387.595 66.56 384.751 66.56V72.56ZM395.011 69.1878C397.946 66.7701 399.367 63.4529 399.367 59.576H393.367C393.367 61.8431 392.613 63.3899 391.196 64.5562L395.011 69.1878ZM399.367 59.576C399.367 56.5814 398.525 53.8431 396.473 51.7907L392.23 56.0333C392.866 56.6689 393.367 57.7066 393.367 59.576H399.367ZM396.524 51.843C394.464 49.6805 391.537 48.896 388.4 48.896V54.896C390.638 54.896 391.679 55.4555 392.179 55.981L396.524 51.843ZM388.4 48.896H376.975V54.896H388.4V48.896ZM374.041 51.2739L370.297 68.938L376.166 70.182L379.91 52.5181L374.041 51.2739ZM448.717 92.6L451.716 92.56L451.677 89.6H448.717V92.6ZM426.541 92.6V89.6H424.559L423.781 91.4227L426.541 92.6ZM420.397 107V110H422.378L423.156 108.177L420.397 107ZM406.861 107L404.115 105.792L402.263 110H406.861V107ZM436.429 39.8V36.8H434.471L433.683 38.5918L436.429 39.8ZM459.853 39.8L462.852 39.7272L462.781 36.8H459.853V39.8ZM461.485 107V110H464.559L464.484 106.927L461.485 107ZM448.909 107L445.909 107.04L445.948 110H448.909V107ZM431.629 80.504L428.87 79.325L427.084 83.504H431.629V80.504ZM448.525 80.504V83.504H451.567L451.524 80.4621L448.525 80.504ZM448.045 46.136L451.044 46.0941L451.003 43.136H448.045V46.136ZM446.317 46.136V43.136H444.336L443.558 44.957L446.317 46.136ZM448.717 89.6H426.541V95.6H448.717V89.6ZM423.781 91.4227L417.637 105.823L423.156 108.177L429.3 93.7773L423.781 91.4227ZM420.397 104H406.861V110H420.397V104ZM409.607 108.208L439.175 41.0082L433.683 38.5918L404.115 105.792L409.607 108.208ZM436.429 42.8H459.853V36.8H436.429V42.8ZM456.854 39.8728L458.486 107.073L464.484 106.927L462.852 39.7272L456.854 39.8728ZM461.485 104H448.909V110H461.485V104ZM451.908 106.96L451.716 92.56L445.717 92.64L445.909 107.04L451.908 106.96ZM431.629 83.504H448.525V77.504H431.629V83.504ZM451.524 80.4621L451.044 46.0941L445.045 46.1779L445.525 80.5459L451.524 80.4621ZM448.045 43.136H446.317V49.136H448.045V43.136ZM443.558 44.957L428.87 79.325L434.387 81.683L449.075 47.315L443.558 44.957ZM488.202 81.656V78.656H485.772L485.267 81.0335L488.202 81.656ZM482.826 107V110H485.256L485.761 107.623L482.826 107ZM470.25 107L467.315 106.379L466.549 110H470.25V107ZM484.458 39.8V36.8H482.026L481.523 39.1794L484.458 39.8ZM516.042 41.144L514.928 43.9294L514.941 43.9348L514.955 43.94L516.042 41.144ZM525.546 50.552L522.744 51.6234L522.757 51.659L522.772 51.6942L525.546 50.552ZM519.882 75.032L521.94 77.2148L519.882 75.032ZM511.818 79.928L512.852 82.744L511.818 79.928ZM490.794 69.56L487.859 68.938L487.091 72.56H490.794V69.56ZM510.666 66.68L512.651 68.9295L510.666 66.68ZM511.626 53.816L509.657 56.0798L509.71 56.1252L509.764 56.1681L511.626 53.816ZM494.538 51.896V48.896H492.107L491.603 51.2739L494.538 51.896ZM485.267 81.0335L479.891 106.377L485.761 107.623L491.137 82.2785L485.267 81.0335ZM482.826 104H470.25V110H482.826V104ZM473.185 107.621L487.393 40.4206L481.523 39.1794L467.315 106.379L473.185 107.621ZM484.458 42.8H508.458V36.8H484.458V42.8ZM508.458 42.8C510.955 42.8 513.096 43.1968 514.928 43.9294L517.156 38.3586C514.508 37.2992 511.593 36.8 508.458 36.8V42.8ZM514.955 43.94C516.907 44.6993 518.497 45.7297 519.777 47.0093L524.019 42.7667C522.099 40.8462 519.785 39.3807 517.129 38.348L514.955 43.94ZM519.777 47.0093C521.07 48.3022 522.058 49.8294 522.744 51.6234L528.348 49.4806C527.37 46.9226 525.926 44.6738 524.019 42.7667L519.777 47.0093ZM522.772 51.6942C523.506 53.4772 523.89 55.4532 523.89 57.656H529.89C529.89 54.7388 529.378 51.9788 528.32 49.4098L522.772 51.6942ZM523.89 57.656C523.89 60.8961 523.342 63.7647 522.293 66.3027L527.839 68.5933C529.222 65.2433 529.89 61.5839 529.89 57.656H523.89ZM522.293 66.3027C521.234 68.8681 519.744 71.0387 517.824 72.8492L521.94 77.2148C524.5 74.8013 526.466 71.9159 527.839 68.5933L522.293 66.3027ZM517.824 72.8492C515.903 74.6602 513.572 76.0877 510.784 77.112L512.852 82.744C516.336 81.4643 519.381 79.6278 521.94 77.2148L517.824 72.8492ZM510.784 77.112C508.024 78.1256 504.893 78.656 501.354 78.656V84.656C505.495 84.656 509.34 84.0344 512.852 82.744L510.784 77.112ZM501.354 78.656H488.202V84.656H501.354V78.656ZM490.794 72.56H502.506V66.56H490.794V72.56ZM502.506 72.56C506.403 72.56 509.858 71.3941 512.651 68.9295L508.681 64.4305C507.122 65.8059 505.137 66.56 502.506 66.56V72.56ZM512.651 68.9295C515.514 66.4033 516.93 63.0676 516.93 59.192H510.93C510.93 61.4604 510.17 63.1167 508.681 64.4305L512.651 68.9295ZM516.93 59.192C516.93 56.1198 515.894 53.3689 513.488 51.4639L509.764 56.1681C510.43 56.6951 510.93 57.5282 510.93 59.192H516.93ZM513.595 51.5522C511.452 49.6888 508.741 48.896 505.77 48.896V54.896C507.663 54.896 508.856 55.3832 509.657 56.0798L513.595 51.5522ZM505.77 48.896H494.538V54.896H505.77V48.896ZM491.603 51.2739L487.859 68.938L493.729 70.182L497.473 52.5181L491.603 51.2739ZM543.239 39.8V36.8H540.807L540.304 39.1794L543.239 39.8ZM555.911 39.8L558.845 40.4258L559.619 36.8H555.911V39.8ZM550.055 67.256L547.121 66.6302L546.348 70.256H550.055V67.256ZM569.255 67.256V70.256H571.683L572.189 67.8818L569.255 67.256ZM575.111 39.8V36.8H572.684L572.177 39.1742L575.111 39.8ZM587.783 39.8L590.718 40.4246L591.489 36.8H587.783V39.8ZM573.479 107V110H575.908L576.414 107.625L573.479 107ZM560.807 107L557.872 106.378L557.105 110H560.807V107ZM566.663 79.352L569.598 79.9736L570.365 76.352H566.663V79.352ZM547.463 79.352V76.352H545.032L544.528 78.7304L547.463 79.352ZM541.607 107V110H544.038L544.542 107.622L541.607 107ZM529.031 107L526.096 106.379L525.331 110H529.031V107ZM543.239 42.8H555.911V36.8H543.239V42.8ZM552.977 39.1742L547.121 66.6302L552.989 67.8818L558.845 40.4258L552.977 39.1742ZM550.055 70.256H569.255V64.256H550.055V70.256ZM572.189 67.8818L578.045 40.4258L572.177 39.1742L566.321 66.6302L572.189 67.8818ZM575.111 42.8H587.783V36.8H575.111V42.8ZM584.849 39.1754L570.545 106.375L576.414 107.625L590.718 40.4246L584.849 39.1754ZM573.479 104H560.807V110H573.479V104ZM563.742 107.622L569.598 79.9736L563.728 78.7304L557.872 106.378L563.742 107.622ZM566.663 76.352H547.463V82.352H566.663V76.352ZM544.528 78.7304L538.672 106.378L544.542 107.622L550.398 79.9736L544.528 78.7304ZM541.607 104H529.031V110H541.607V104ZM531.966 107.621L546.174 40.4206L540.304 39.1794L526.096 106.379L531.966 107.621ZM589.541 105.848L586.606 105.225L586.541 105.533V105.848H589.541ZM603.557 39.8V36.8H601.126L600.622 39.1772L603.557 39.8ZM643.396 39.8H646.396V36.8H643.396V39.8ZM643.396 51.896V54.896H646.396V51.896H643.396ZM613.636 51.896V48.896H611.207L610.702 51.2724L613.636 51.896ZM610.372 67.256L607.438 66.6324L606.668 70.256H610.372V67.256ZM636.388 67.256H639.388V64.256H636.388V67.256ZM636.388 79.352V82.352H639.388V79.352H636.388ZM607.781 79.352V76.352H605.345L604.844 78.7358L607.781 79.352ZM604.516 94.904L601.58 94.2878L600.822 97.904H604.516V94.904ZM632.836 94.904H635.836V91.904H632.836V94.904ZM632.836 107V110H635.836V107H632.836ZM589.541 107H586.541V110H589.541V107ZM592.475 106.471L606.491 40.4228L600.622 39.1772L586.606 105.225L592.475 106.471ZM603.557 42.8H643.396V36.8H603.557V42.8ZM640.396 39.8V51.896H646.396V39.8H640.396ZM643.396 48.896H613.636V54.896H643.396V48.896ZM610.702 51.2724L607.438 66.6324L613.307 67.8796L616.571 52.5196L610.702 51.2724ZM610.372 70.256H636.388V64.256H610.372V70.256ZM633.388 67.256V79.352H639.388V67.256H633.388ZM636.388 76.352H607.781V82.352H636.388V76.352ZM604.844 78.7358L601.58 94.2878L607.453 95.5202L610.717 79.9682L604.844 78.7358ZM604.516 97.904H632.836V91.904H604.516V97.904ZM629.836 94.904V107H635.836V94.904H629.836ZM632.836 104H589.541V110H632.836V104ZM592.541 107V105.848H586.541V107H592.541ZM707.103 105.848L704.168 105.225L704.103 105.533V105.848H707.103ZM721.119 39.8V36.8H718.689L718.184 39.1772L721.119 39.8ZM760.959 39.8H763.959V36.8H760.959V39.8ZM760.959 51.896V54.896H763.959V51.896H760.959ZM731.199 51.896V48.896H728.77L728.265 51.2724L731.199 51.896ZM727.935 67.256L725.001 66.6324L724.231 70.256H727.935V67.256ZM753.951 67.256H756.951V64.256H753.951V67.256ZM753.951 79.352V82.352H756.951V79.352H753.951ZM725.343 79.352V76.352H722.907L722.407 78.7358L725.343 79.352ZM722.079 94.904L719.143 94.2878L718.384 97.904H722.079V94.904ZM750.399 94.904H753.399V91.904H750.399V94.904ZM750.399 107V110H753.399V107H750.399ZM707.103 107H704.103V110H707.103V107ZM710.038 106.471L724.054 40.4228L718.184 39.1772L704.168 105.225L710.038 106.471ZM721.119 42.8H760.959V36.8H721.119V42.8ZM757.959 39.8V51.896H763.959V39.8H757.959ZM760.959 48.896H731.199V54.896H760.959V48.896ZM728.265 51.2724L725.001 66.6324L730.87 67.8796L734.133 52.5196L728.265 51.2724ZM727.935 70.256H753.951V64.256H727.935V70.256ZM750.951 67.256V79.352H756.951V67.256H750.951ZM753.951 76.352H725.343V82.352H753.951V76.352ZM722.407 78.7358L719.143 94.2878L725.015 95.5202L728.279 79.9682L722.407 78.7358ZM722.079 97.904H750.399V91.904H722.079V97.904ZM747.399 94.904V107H753.399V94.904H747.399ZM750.399 104H707.103V110H750.399V104ZM710.103 107V105.848H704.103V107H710.103ZM769.916 39.8V36.8H766.767L766.92 39.9455L769.916 39.8ZM782.78 39.8L785.778 39.6912L785.673 36.8H782.78V39.8ZM784.988 100.664L781.99 100.773L782.095 103.664H784.988V100.664ZM786.716 100.664V103.664H788.702L789.478 101.836L786.716 100.664ZM812.54 39.8V36.8H810.554L809.779 38.6282L812.54 39.8ZM825.788 39.8H828.788V36.8H825.788V39.8ZM825.788 40.952L828.535 42.1578L828.788 41.5814V40.952H825.788ZM796.796 107V110H798.756L799.543 108.206L796.796 107ZM773.18 107L770.184 107.146L770.322 110H773.18V107ZM769.916 42.8H782.78V36.8H769.916V42.8ZM779.782 39.9088L781.99 100.773L787.986 100.555L785.778 39.6912L779.782 39.9088ZM784.988 103.664H786.716V97.664H784.988V103.664ZM789.478 101.836L815.302 40.9718L809.779 38.6282L783.955 99.4922L789.478 101.836ZM812.54 42.8H825.788V36.8H812.54V42.8ZM822.788 39.8V40.952H828.788V39.8H822.788ZM823.041 39.7462L794.049 105.794L799.543 108.206L828.535 42.1578L823.041 39.7462ZM796.796 104H773.18V110H796.796V104ZM776.177 106.854L772.913 39.6545L766.92 39.9455L770.184 107.146L776.177 106.854ZM824.666 105.848L821.731 105.225L821.666 105.533V105.848H824.666ZM838.682 39.8V36.8H836.251L835.747 39.1772L838.682 39.8ZM878.521 39.8H881.521V36.8H878.521V39.8ZM878.521 51.896V54.896H881.521V51.896H878.521ZM848.761 51.896V48.896H846.332L845.827 51.2724L848.761 51.896ZM845.497 67.256L842.563 66.6324L841.793 70.256H845.497V67.256ZM871.513 67.256H874.513V64.256H871.513V67.256ZM871.513 79.352V82.352H874.513V79.352H871.513ZM842.906 79.352V76.352H840.47L839.969 78.7358L842.906 79.352ZM839.641 94.904L836.705 94.2878L835.947 97.904H839.641V94.904ZM867.961 94.904H870.961V91.904H867.961V94.904ZM867.961 107V110H870.961V107H867.961ZM824.666 107H821.666V110H824.666V107ZM827.6 106.471L841.616 40.4228L835.747 39.1772L821.731 105.225L827.6 106.471ZM838.682 42.8H878.521V36.8H838.682V42.8ZM875.521 39.8V51.896H881.521V39.8H875.521ZM878.521 48.896H848.761V54.896H878.521V48.896ZM845.827 51.2724L842.563 66.6324L848.432 67.8796L851.696 52.5196L845.827 51.2724ZM845.497 70.256H871.513V64.256H845.497V70.256ZM868.513 67.256V79.352H874.513V67.256H868.513ZM871.513 76.352H842.906V82.352H871.513V76.352ZM839.969 78.7358L836.705 94.2878L842.578 95.5202L845.842 79.9682L839.969 78.7358ZM839.641 97.904H867.961V91.904H839.641V97.904ZM864.961 94.904V107H870.961V94.904H864.961ZM867.961 104H824.666V110H867.961V104ZM827.666 107V105.848H821.666V107H827.666ZM914.359 100.664L911.367 100.442L911.128 103.664H914.359V100.664ZM916.087 100.664V103.664H918.515L919.021 101.289L916.087 100.664ZM929.047 39.8V36.8H926.618L926.113 39.1752L929.047 39.8ZM941.143 39.8L944.077 40.4246L944.849 36.8H941.143V39.8ZM926.839 107V110H929.267L929.773 107.625L926.839 107ZM903.223 107L900.231 106.778L899.992 110H903.223V107ZM907.735 46.136L910.727 46.3578L910.965 43.136H907.735V46.136ZM906.007 46.136V43.136H903.578L903.073 45.5112L906.007 46.136ZM893.047 107V110H895.475L895.981 107.625L893.047 107ZM881.047 107L878.112 106.379L877.346 110H881.047V107ZM895.255 39.8V36.8H892.823L892.32 39.1794L895.255 39.8ZM918.871 39.8L921.863 40.0218L922.101 36.8H918.871V39.8ZM914.359 103.664H916.087V97.664H914.359V103.664ZM919.021 101.289L931.981 40.4248L926.113 39.1752L913.153 100.039L919.021 101.289ZM929.047 42.8H941.143V36.8H929.047V42.8ZM938.208 39.1754L923.904 106.375L929.773 107.625L944.077 40.4246L938.208 39.1754ZM926.839 104H903.223V110H926.839V104ZM906.215 107.222L910.727 46.3578L904.743 45.9142L900.231 106.778L906.215 107.222ZM907.735 43.136H906.007V49.136H907.735V43.136ZM903.073 45.5112L890.113 106.375L895.981 107.625L908.941 46.7608L903.073 45.5112ZM893.047 104H881.047V110H893.047V104ZM883.982 107.621L898.19 40.4206L892.32 39.1794L878.112 106.379L883.982 107.621ZM895.255 42.8H918.871V36.8H895.255V42.8ZM915.879 39.5782L911.367 100.442L917.351 100.886L921.863 40.0218L915.879 39.5782ZM950.1 39.8V36.8H947.1V39.8H950.1ZM998.484 39.8H1001.48V36.8H998.484V39.8ZM998.484 51.896V54.896H1001.48V51.896H998.484ZM980.628 51.896V48.896H978.199L977.694 51.2723L980.628 51.896ZM968.916 107V110H971.345L971.85 107.624L968.916 107ZM956.244 107L953.31 106.376L952.539 110H956.244V107ZM967.956 51.896L970.89 52.5197L971.661 48.896H967.956V51.896ZM950.1 51.896H947.1V54.896H950.1V51.896ZM950.1 42.8H998.484V36.8H950.1V42.8ZM995.484 39.8V51.896H1001.48V39.8H995.484ZM998.484 48.896H980.628V54.896H998.484V48.896ZM977.694 51.2723L965.982 106.376L971.85 107.624L983.562 52.5197L977.694 51.2723ZM968.916 104H956.244V110H968.916V104ZM959.178 107.624L970.89 52.5197L965.022 51.2723L953.31 106.376L959.178 107.624ZM967.956 48.896H950.1V54.896H967.956V48.896ZM953.1 51.896V39.8H947.1V51.896H953.1Z" fill="white" mask="url(#path-1-outside-1_2_572)"/>
</svg>
